<svg xmlns="http://www.w3.org/2000/svg" xmlns:xlink="http://www.w3.org/1999/xlink" width="154.956" height="22.417" viewBox="0 0 154.956 22.417">
  <defs>
    <clipPath id="clip-path">
      <path id="패스_16" data-name="패스 16" d="M63.98.363a3.6,3.6,0,0,0-1.73,4.788L69.387,20.36a3.6,3.6,0,0,0,3.252,2.072h.015a3.6,3.6,0,0,0,3.251-5.13L68.769,2.093A3.6,3.6,0,0,0,63.98.363" transform="translate(-61.908 -0.021)" fill="#c1c7d1"/>
    </clipPath>
    <clipPath id="clip-path-2">
      <path id="패스_15" data-name="패스 15" d="M10.816,0A3.588,3.588,0,0,0,9.293.342c-.052.025-.1.051-.155.077A3.565,3.565,0,0,0,7.607,2.053l-4.245,8.92L.342,17.283a3.6,3.6,0,1,0,6.519,3.058l1.168-2.49a5.406,5.406,0,0,0-.006-4.629L7.18,11.439l-.494-1.1a1.491,1.491,0,0,1,.121-1.565,1.534,1.534,0,0,1,2.484.043L14.7,20.341a3.6,3.6,0,1,0,6.519-3.059L14.082,2.072A3.6,3.6,0,0,0,10.826,0Z" transform="translate(0)" fill="#c1c7d1"/>
    </clipPath>
  </defs>
  <g id="footer_logo" transform="translate(-267 563)">
    <g id="그룹_9" data-name="그룹 9" transform="translate(308.609 -558.832)">
      <path id="패스_9" data-name="패스 9" d="M156.936,29.47h-2.8V20.348l-4.925,8.663a1.207,1.207,0,0,1-.507.5,1.48,1.48,0,0,1-.7.171,1.4,1.4,0,0,1-.678-.171,1.225,1.225,0,0,1-.5-.5l-4.946-8.663V29.47h-2.777V15.338a1.394,1.394,0,0,1,1.025-1.357,1.491,1.491,0,0,1,.881.059,1.3,1.3,0,0,1,.668.572L148.006,25.6l6.324-10.992a1.357,1.357,0,0,1,.678-.577,1.446,1.446,0,0,1,.9-.054,1.394,1.394,0,0,1,.737.5,1.362,1.362,0,0,1,.288.855Z" transform="translate(-139.108 -13.933)" fill="#c1c7d1"/>
      <path id="패스_10" data-name="패스 10" d="M221.364,29.984h-10.02a4.459,4.459,0,0,1-1.261-.2,3.686,3.686,0,0,1-2.238-1.875,3.886,3.886,0,0,1-.389-1.822V16.065a1.421,1.421,0,0,1,.4-.993,1.313,1.313,0,0,1,.443-.3,1.432,1.432,0,0,1,.556-.107h12.509v2.778H210.233v8.642a1.126,1.126,0,0,0,.288.833,1.144,1.144,0,0,0,.844.289h10Zm-1.25-6.26H209.8v-2.8h10.309Z" transform="translate(-187.012 -14.446)" fill="#c1c7d1"/>
      <path id="패스_11" data-name="패스 11" d="M276.323,23.574a6.671,6.671,0,0,1-.486,2.574,6.02,6.02,0,0,1-3.37,3.354,6.673,6.673,0,0,1-2.553.481h-7.5a1.43,1.43,0,0,1-.555-.107,1.336,1.336,0,0,1-.737-.737,1.435,1.435,0,0,1-.107-.555V16.064a1.407,1.407,0,0,1,.107-.545,1.422,1.422,0,0,1,.294-.449,1.321,1.321,0,0,1,.444-.3,1.43,1.43,0,0,1,.555-.107h7.5a6.679,6.679,0,0,1,2.553.481,6.008,6.008,0,0,1,3.37,3.36,6.684,6.684,0,0,1,.486,2.569Zm-2.777-2.5a4.065,4.065,0,0,0-.262-1.485,3.244,3.244,0,0,0-.742-1.149,3.348,3.348,0,0,0-1.148-.737,4.018,4.018,0,0,0-1.479-.262h-6.121v9.764h6.121a4.024,4.024,0,0,0,1.479-.262,3.349,3.349,0,0,0,1.148-.737,3.249,3.249,0,0,0,.742-1.143,4.052,4.052,0,0,0,.262-1.49Z" transform="translate(-224.552 -14.446)" fill="#c1c7d1"/>
      <rect id="사각형_5" data-name="사각형 5" width="2.778" height="15.318" transform="translate(53.971 0.219)" fill="#c1c7d1"/>
      <path id="패스_12" data-name="패스 12" d="M351.924,29.983H339.255a1.432,1.432,0,0,1-.555-.107,1.334,1.334,0,0,1-.737-.737,1.427,1.427,0,0,1-.107-.555V14.665h2.778V27.206h11.291Z" transform="translate(-278.407 -14.446)" fill="#c1c7d1"/>
      <path id="패스_13" data-name="패스 13" d="M407.71,29.47h-2.8V20.348l-4.925,8.663a1.207,1.207,0,0,1-.507.5,1.48,1.48,0,0,1-.7.171,1.4,1.4,0,0,1-.678-.171,1.224,1.224,0,0,1-.5-.5l-4.946-8.663V29.47h-2.777V15.338a1.394,1.394,0,0,1,1.025-1.357,1.491,1.491,0,0,1,.882.059,1.3,1.3,0,0,1,.668.572L398.78,25.6,405.1,14.612a1.357,1.357,0,0,1,.678-.577,1.446,1.446,0,0,1,.9-.054,1.394,1.394,0,0,1,.737.5,1.362,1.362,0,0,1,.288.855Z" transform="translate(-314.872 -13.933)" fill="#c1c7d1"/>
      <path id="패스_14" data-name="패스 14" d="M476.272,29.47h-2.8V20.348l-4.925,8.663a1.207,1.207,0,0,1-.507.5,1.48,1.48,0,0,1-.7.171,1.4,1.4,0,0,1-.678-.171,1.225,1.225,0,0,1-.5-.5l-4.946-8.663V29.47h-2.777V15.338a1.394,1.394,0,0,1,1.025-1.357,1.491,1.491,0,0,1,.882.059,1.3,1.3,0,0,1,.668.572L467.342,25.6l6.324-10.992a1.357,1.357,0,0,1,.678-.577,1.446,1.446,0,0,1,.9-.054,1.394,1.394,0,0,1,.737.5,1.362,1.362,0,0,1,.288.855Z" transform="translate(-362.926 -13.933)" fill="#c1c7d1"/>
    </g>
    <g id="그룹_10" data-name="그룹 10" transform="translate(267 -563)">
      <g id="그룹_8" data-name="그룹 8" transform="translate(18.518 0.006)" clip-path="url(#clip-path)" style="isolation: isolate">
        <rect id="사각형_8" data-name="사각형 8" width="24.135" height="27.007" transform="translate(-9.858 5.037) rotate(-28.301)" fill="#c1c7d1"/>
      </g>
      <g id="그룹_7" data-name="그룹 7" transform="translate(0 0)" clip-path="url(#clip-path-2)">
        <rect id="사각형_7" data-name="사각형 7" width="31.319" height="31.428" transform="matrix(0.845, -0.534, 0.534, 0.845, -10.852, 6.541)" fill="#c1c7d1"/>
      </g>
    </g>
  </g>
</svg>
