<svg xmlns="http://www.w3.org/2000/svg" xmlns:xlink="http://www.w3.org/1999/xlink" width="206" height="206" viewBox="0 0 206 206">
  <defs>
    <linearGradient id="linear-gradient" x1="0.517" y1="0.086" x2="0.482" y2="0.983" gradientUnits="objectBoundingBox">
      <stop offset="0" stop-color="#fff"/>
      <stop offset="1" stop-color="#fff" stop-opacity="0.502"/>
    </linearGradient>
    <linearGradient id="linear-gradient-2" x1="0.908" y1="0.564" x2="-0.06" y2="0.594" xlink:href="#linear-gradient"/>
    <linearGradient id="linear-gradient-3" x1="0.5" x2="0.5" y2="1" gradientUnits="objectBoundingBox">
      <stop offset="0" stop-color="#02c6ff"/>
      <stop offset="1" stop-color="#1c45f9"/>
    </linearGradient>
    <clipPath id="clip-path">
      <path id="패스_16" data-name="패스 16" d="M65.352.589a5.983,5.983,0,0,0-2.875,7.958L74.338,33.825a5.983,5.983,0,0,0,5.405,3.443h.025a5.986,5.986,0,0,0,5.4-8.526L73.31,3.464A5.978,5.978,0,0,0,65.352.589" transform="translate(-61.908 -0.021)" fill="url(#linear-gradient)"/>
    </clipPath>
    <clipPath id="clip-path-2">
      <path id="패스_15" data-name="패스 15" d="M17.975,0a5.964,5.964,0,0,0-2.531.568c-.087.041-.173.084-.257.128a5.925,5.925,0,0,0-2.544,2.716L5.587,18.239.568,28.723A5.984,5.984,0,1,0,11.4,33.806l1.941-4.139a8.985,8.985,0,0,0-.009-7.693l-1.4-2.963-.82-1.831a2.478,2.478,0,0,1,.2-2.6,2.549,2.549,0,0,1,4.129.072l8.989,19.155a5.984,5.984,0,1,0,10.834-5.084L23.4,3.444A5.984,5.984,0,0,0,17.993,0Z" transform="translate(0)" fill="url(#linear-gradient-2)"/>
    </clipPath>
  </defs>
  <g id="그룹_28914" data-name="그룹 28914" transform="translate(-857 -896)">
    <circle id="타원_178" data-name="타원 178" cx="103" cy="103" r="103" transform="translate(857 896)" fill="url(#linear-gradient-3)"/>
    <g id="그룹_26693" data-name="그룹 26693" transform="translate(907 966)">
      <g id="그룹_24376" data-name="그룹 24376" transform="translate(0 50.835)">
        <path id="패스_10713" data-name="패스 10713" d="M16.518,134.414H13.925v-8.452l-4.563,8.026a1.117,1.117,0,0,1-.47.465,1.371,1.371,0,0,1-.648.158,1.293,1.293,0,0,1-.628-.158,1.133,1.133,0,0,1-.46-.465l-4.582-8.026v8.452H0V121.321a1.293,1.293,0,0,1,.95-1.257,1.381,1.381,0,0,1,.817.055,1.21,1.21,0,0,1,.619.529l5.859,10.184L14.1,120.648a1.257,1.257,0,0,1,.629-.535,1.341,1.341,0,0,1,.836-.05,1.288,1.288,0,0,1,.683.465,1.26,1.26,0,0,1,.267.792Z" transform="translate(0 -120.02)" fill="#fff"/>
        <path id="패스_10714" data-name="패스 10714" d="M57.6,134.69H48.321a4.128,4.128,0,0,1-1.168-.188,3.414,3.414,0,0,1-2.073-1.737,3.6,3.6,0,0,1-.361-1.687v-9.283a1.317,1.317,0,0,1,.371-.92,1.227,1.227,0,0,1,.41-.277,1.331,1.331,0,0,1,.515-.1H57.6v2.573H47.292v8.007a1.043,1.043,0,0,0,.267.772,1.059,1.059,0,0,0,.782.268H57.6Zm-1.158-5.8H46.894V126.3h9.552Z" transform="translate(-25.777 -120.295)" fill="#fff"/>
        <path id="패스_10715" data-name="패스 10715" d="M93.944,128.752a6.181,6.181,0,0,1-.45,2.385,5.578,5.578,0,0,1-3.122,3.108,6.187,6.187,0,0,1-2.365.445H81.059a1.323,1.323,0,0,1-.515-.1,1.238,1.238,0,0,1-.683-.683,1.329,1.329,0,0,1-.1-.515v-11.6a1.305,1.305,0,0,1,.1-.5,1.324,1.324,0,0,1,.272-.415,1.221,1.221,0,0,1,.411-.277,1.323,1.323,0,0,1,.515-.1h6.948a6.194,6.194,0,0,1,2.365.445,5.57,5.57,0,0,1,3.122,3.113,6.192,6.192,0,0,1,.45,2.38Zm-2.573-2.316a3.77,3.77,0,0,0-.242-1.376A3,3,0,0,0,90.44,124a3.1,3.1,0,0,0-1.064-.683,3.725,3.725,0,0,0-1.371-.243H82.335v9.046h5.671a3.734,3.734,0,0,0,1.371-.242,3.1,3.1,0,0,0,1.064-.683,3.01,3.01,0,0,0,.688-1.059,3.759,3.759,0,0,0,.242-1.381Z" transform="translate(-45.978 -120.295)" fill="#fff"/>
        <rect id="사각형_28" data-name="사각형 28" width="2.574" height="14.192" transform="translate(50.003 0.203)" fill="#fff"/>
        <path id="패스_10716" data-name="패스 10716" d="M143.07,134.69H131.332a1.325,1.325,0,0,1-.515-.1,1.236,1.236,0,0,1-.683-.683,1.321,1.321,0,0,1-.1-.515V120.5h2.573v11.619H143.07Z" transform="translate(-74.958 -120.295)" fill="#fff"/>
        <path id="패스_10717" data-name="패스 10717" d="M180.594,134.414H178v-8.452l-4.563,8.026a1.117,1.117,0,0,1-.47.465,1.371,1.371,0,0,1-.648.158,1.293,1.293,0,0,1-.628-.158,1.133,1.133,0,0,1-.46-.465l-4.583-8.026v8.452h-2.573V121.321a1.293,1.293,0,0,1,.95-1.257,1.381,1.381,0,0,1,.817.055,1.21,1.21,0,0,1,.619.529l5.859,10.184,5.859-10.184a1.258,1.258,0,0,1,.629-.535,1.341,1.341,0,0,1,.836-.05,1.288,1.288,0,0,1,.683.465,1.26,1.26,0,0,1,.267.792Z" transform="translate(-94.581 -120.02)" fill="#fff"/>
        <path id="패스_10718" data-name="패스 10718" d="M225.452,134.414h-2.593v-8.452l-4.563,8.026a1.117,1.117,0,0,1-.47.465,1.371,1.371,0,0,1-.648.158,1.293,1.293,0,0,1-.628-.158,1.132,1.132,0,0,1-.46-.465l-4.583-8.026v8.452h-2.573V121.321a1.293,1.293,0,0,1,.95-1.257,1.381,1.381,0,0,1,.817.055,1.21,1.21,0,0,1,.619.529l5.859,10.184,5.859-10.184a1.257,1.257,0,0,1,.628-.535,1.341,1.341,0,0,1,.836-.05,1.289,1.289,0,0,1,.683.465,1.26,1.26,0,0,1,.267.792Z" transform="translate(-120.439 -120.02)" fill="#fff"/>
      </g>
      <g id="그룹_10" data-name="그룹 10" transform="translate(25.353 0)">
        <g id="그룹_8" data-name="그룹 8" transform="translate(30.776 0.01)" clip-path="url(#clip-path)">
          <rect id="사각형_8" data-name="사각형 8" width="40.112" height="44.885" transform="translate(-16.383 8.372) rotate(-28.301)" fill="url(#linear-gradient)"/>
        </g>
        <g id="그룹_7" data-name="그룹 7" transform="translate(0 0)" clip-path="url(#clip-path-2)">
          <rect id="사각형_7" data-name="사각형 7" width="52.051" height="52.232" transform="matrix(0.845, -0.534, 0.534, 0.845, -18.036, 10.871)" fill="url(#linear-gradient-2)"/>
        </g>
      </g>
    </g>
  </g>
</svg>
