<svg xmlns="http://www.w3.org/2000/svg" xmlns:xlink="http://www.w3.org/1999/xlink" width="194.51" height="28.139" viewBox="0 0 194.51 28.139">
  <defs>
    <linearGradient id="linear-gradient" x1="0.517" y1="0.086" x2="0.482" y2="0.983" gradientUnits="objectBoundingBox">
      <stop offset="0" stop-color="#02c6ff"/>
      <stop offset="1" stop-color="#1c45f9"/>
    </linearGradient>
    <linearGradient id="linear-gradient-2" x1="0.908" y1="0.564" x2="-0.06" y2="0.594" xlink:href="#linear-gradient"/>
    <clipPath id="clip-path">
      <path id="패스_7" data-name="패스 7" d="M64.522.45a4.51,4.51,0,0,0-2.182,6.01l9,19.092a4.542,4.542,0,0,0,4.1,2.6h.019a4.529,4.529,0,0,0,4.1-6.44l-9-19.092A4.549,4.549,0,0,0,64.522.45" transform="translate(-61.908 -0.021)" fill="url(#linear-gradient)"/>
    </clipPath>
    <clipPath id="clip-path-2">
      <path id="패스_8" data-name="패스 8" d="M13.641,0a4.544,4.544,0,0,0-1.921.429c-.066.031-.131.063-.2.1A4.484,4.484,0,0,0,9.595,2.578L4.24,13.775.431,21.694a4.537,4.537,0,0,0,8.222,3.839l1.473-3.126a6.757,6.757,0,0,0-.007-5.81L9.057,14.359l-.622-1.383a1.864,1.864,0,0,1,.152-1.964,1.94,1.94,0,0,1,3.134.054l6.821,14.467a4.537,4.537,0,0,0,8.222-3.84l-9-19.093A4.543,4.543,0,0,0,13.655,0Z" transform="translate(0)" fill="url(#linear-gradient-2)"/>
    </clipPath>
  </defs>
  <g id="logo_blk" transform="translate(-320 -31)">
    <g id="그룹_12" data-name="그룹 12" transform="translate(371.546 36.121)">
      <path id="패스_1" data-name="패스 1" d="M161.595,33.53h-3.53V22.024l-6.211,10.926a1.522,1.522,0,0,1-.64.633,1.867,1.867,0,0,1-.882.216,1.762,1.762,0,0,1-.856-.216,1.544,1.544,0,0,1-.627-.633l-6.238-10.926V33.53h-3.5V15.7a1.758,1.758,0,0,1,1.293-1.711,1.88,1.88,0,0,1,1.112.074,1.644,1.644,0,0,1,.842.721l7.976,13.864,7.976-13.864a1.712,1.712,0,0,1,.856-.728,1.824,1.824,0,0,1,1.138-.068,1.758,1.758,0,0,1,.93.633,1.717,1.717,0,0,1,.364,1.078Z" transform="translate(-139.108 -13.933)" fill="#1c1c1c"/>
      <path id="패스_2" data-name="패스 2" d="M225,33.986H212.36a5.624,5.624,0,0,1-1.59-.256,4.649,4.649,0,0,1-2.823-2.365,4.9,4.9,0,0,1-.491-2.3V16.43a1.792,1.792,0,0,1,.505-1.253,1.656,1.656,0,0,1,.559-.377,1.806,1.806,0,0,1,.7-.135H225v3.5H210.959v10.9a1.42,1.42,0,0,0,.363,1.051,1.442,1.442,0,0,0,1.065.364H225Zm-1.576-7.9h-13v-3.53h13Z" transform="translate(-181.67 -14.389)" fill="#1c1c1c"/>
      <path id="패스_3" data-name="패스 3" d="M280.323,25.9a8.415,8.415,0,0,1-.613,3.247,7.593,7.593,0,0,1-4.251,4.231,8.417,8.417,0,0,1-3.22.606h-9.459a1.8,1.8,0,0,1-.7-.135,1.685,1.685,0,0,1-.93-.93,1.81,1.81,0,0,1-.135-.7V16.43a1.774,1.774,0,0,1,.135-.687,1.794,1.794,0,0,1,.37-.566,1.667,1.667,0,0,1,.56-.377,1.8,1.8,0,0,1,.7-.135h9.459a8.425,8.425,0,0,1,3.22.606,7.578,7.578,0,0,1,4.251,4.237,8.431,8.431,0,0,1,.613,3.24Zm-3.5-3.152a5.129,5.129,0,0,0-.33-1.873,4.091,4.091,0,0,0-.936-1.449,4.224,4.224,0,0,0-1.448-.929,5.067,5.067,0,0,0-1.866-.33h-7.721V30.483h7.721a5.075,5.075,0,0,0,1.866-.33,4.224,4.224,0,0,0,1.448-.93,4.1,4.1,0,0,0,.936-1.442,5.112,5.112,0,0,0,.33-1.88Z" transform="translate(-215.024 -14.389)" fill="#1c1c1c"/>
      <rect id="사각형_1" data-name="사각형 1" width="3.503" height="19.321" transform="translate(68.073 0.276)" fill="#1c1c1c"/>
      <path id="패스_4" data-name="패스 4" d="M355.6,33.986H339.62a1.806,1.806,0,0,1-.7-.135,1.682,1.682,0,0,1-.93-.93,1.8,1.8,0,0,1-.135-.7V14.665h3.5V30.483H355.6Z" transform="translate(-262.874 -14.389)" fill="#1c1c1c"/>
      <path id="패스_5" data-name="패스 5" d="M412.369,33.53h-3.53V22.024l-6.211,10.926a1.522,1.522,0,0,1-.64.633,1.867,1.867,0,0,1-.882.216,1.762,1.762,0,0,1-.856-.216,1.545,1.545,0,0,1-.627-.633l-6.238-10.926V33.53h-3.5V15.7a1.758,1.758,0,0,1,1.293-1.711,1.88,1.88,0,0,1,1.112.074,1.645,1.645,0,0,1,.842.721l7.976,13.864,7.976-13.864a1.712,1.712,0,0,1,.856-.728,1.824,1.824,0,0,1,1.138-.068,1.758,1.758,0,0,1,.93.633,1.717,1.717,0,0,1,.364,1.078Z" transform="translate(-295.273 -13.933)" fill="#1c1c1c"/>
      <path id="패스_6" data-name="패스 6" d="M480.931,33.53H477.4V22.024L471.19,32.951a1.522,1.522,0,0,1-.64.633,1.867,1.867,0,0,1-.882.216,1.762,1.762,0,0,1-.856-.216,1.545,1.545,0,0,1-.627-.633l-6.238-10.926V33.53h-3.5V15.7a1.758,1.758,0,0,1,1.293-1.711,1.88,1.88,0,0,1,1.112.074,1.645,1.645,0,0,1,.842.721l7.976,13.864,7.976-13.864a1.712,1.712,0,0,1,.856-.728,1.824,1.824,0,0,1,1.138-.068,1.758,1.758,0,0,1,.929.633,1.717,1.717,0,0,1,.364,1.078Z" transform="translate(-337.968 -13.933)" fill="#1c1c1c"/>
    </g>
    <g id="그룹_13" data-name="그룹 13" transform="translate(320 31)">
      <g id="그룹_3" data-name="그룹 3" transform="translate(23.356 0.008)" clip-path="url(#clip-path)">
        <path id="패스_10999" data-name="패스 10999" d="M0,0,30.409.061,30.477,34,.068,33.937Z" transform="translate(-12.433 6.323) rotate(-28.301)" fill="url(#linear-gradient)"/>
      </g>
      <g id="그룹_5" data-name="그룹 5" transform="translate(0 0)" clip-path="url(#clip-path-2)">
        <path id="패스_11000" data-name="패스 11000" d="M0,0,39.448.085l.086,39.5L.086,39.5Z" transform="matrix(0.845, -0.534, 0.534, 0.845, -13.687, 8.21)" fill="url(#linear-gradient-2)"/>
      </g>
    </g>
  </g>
</svg>
