<svg xmlns="http://www.w3.org/2000/svg" width="343" height="344" viewBox="0 0 343 344">
  <g id="그룹_28922" data-name="그룹 28922" transform="translate(-16 -1911)">
    <rect id="사각형_5474" data-name="사각형 5474" width="343" height="344" rx="6" transform="translate(16 1911)" fill="#fafbfd"/>
    <path id="패스_11534" data-name="패스 11534" d="M10.8-11.88H9.42v9.51H10.8V-6.93h1.92V-8.07H10.8ZM1.08-4.65H2.1A28.814,28.814,0,0,0,8.25-5.1L8.1-6.24a24.022,24.022,0,0,1-5.64.42V-9.63H6.93v-1.14H1.08ZM2.49.96h8.88V-.15H3.87V-3.36H2.49ZM17.31-11.28c-1.98,0-3.405,1.1-3.39,2.73-.015,1.605,1.41,2.715,3.39,2.7,1.965.015,3.39-1.1,3.39-2.7C20.7-10.185,19.275-11.28,17.31-11.28ZM12.99-4.83l.18,1.17c1.035,0,2.235-.015,3.51-.075V.84h1.41V-3.81a32.862,32.862,0,0,0,3.63-.45l-.09-1.05A58.909,58.909,0,0,1,12.99-4.83Zm2.28-3.72c-.015-.96.84-1.6,2.04-1.59,1.215-.015,2.07.63,2.07,1.59s-.855,1.575-2.07,1.56C16.11-6.975,15.255-7.605,15.27-8.55Zm7.26,9.81h1.38V-11.88H22.53ZM30.21.09A1,1,0,0,0,31.23-.93a1.028,1.028,0,0,0-1.02-1.05A1.053,1.053,0,0,0,29.16-.93,1.028,1.028,0,0,0,30.21.09ZM29.16-6.72A1.028,1.028,0,0,0,30.21-5.7a1,1,0,0,0,1.02-1.02,1.028,1.028,0,0,0-1.02-1.05A1.053,1.053,0,0,0,29.16-6.72Zm8.16-4.32H36v6.18h5.13v-6.18H39.84v2.01H37.32Zm0,5.07V-7.95h2.52v1.98Zm.39,3.84h7.53V1.23h1.38v-4.5H37.71Zm4.77-1.95h1.29v-3.3H45.3v3.39h1.32v-7.89H45.3v3.36H43.77v-3.12H42.48ZM54.6-10.74H48.45v6.15H54.6ZM49.8-5.7V-9.6h3.42v3.9ZM49.95.96h8.88V-.15h-7.5V-3.21H49.95Zm6.93-3.24h1.38V-6.81h1.89V-7.95H58.26v-3.93H56.88Zm14.49-9.6H69.96v7.71H67.35v.99h2.61v1.26h1.41Zm-10.98,6,.18,1.11c1.065,0,2.3,0,3.57-.045V-2.34h1.38V-4.89a32.8,32.8,0,0,0,3.45-.39l-.09-.99A76.867,76.867,0,0,1,60.39-5.88Zm1.02-3.18c0,1.41,1.335,2.3,3.27,2.28,1.92.015,3.255-.87,3.27-2.28-.015-1.38-1.35-2.31-3.27-2.31S61.41-10.44,61.41-9.06ZM62.22.96H71.7V-.15H63.6V-2.88H62.22Zm.51-10.02c0-.78.795-1.275,1.95-1.26,1.125-.015,1.935.48,1.95,1.26-.015.78-.825,1.275-1.95,1.26C63.525-7.785,62.73-8.28,62.73-9.06Z" transform="translate(32 1943)"/>
    <g id="그룹_27820" data-name="그룹 27820">
      <path id="패스_11533" data-name="패스 11533" d="M10.77-11.88H9.39V1.23h1.38V-5.22h1.98V-6.39H10.77ZM.33-2.31.54-1.17a50.624,50.624,0,0,0,8.19-.51L8.61-2.73c-1.095.15-2.265.255-3.42.315v-1.29A2.524,2.524,0,0,0,7.68-6.09C7.665-7.56,6.375-8.535,4.53-8.52c-1.89-.015-3.165.96-3.15,2.43-.015,1.275.945,2.175,2.43,2.385v1.35C2.565-2.325,1.365-2.31.33-2.31Zm.24-6.9H8.43v-1.11H5.19v-1.53H3.81v1.53H.57Zm2.1,3.12c.015-.825.75-1.365,1.86-1.38,1.08.015,1.815.555,1.8,1.38.015.84-.72,1.365-1.8,1.35C3.42-4.725,2.685-5.25,2.67-6.09Zm18.15-4.47H17.61v-1.38H16.23v1.38H13.02v1.11h7.8ZM13.74-6.45c-.015,1.425,1.275,2.37,3.18,2.37s3.18-.945,3.18-2.37-1.29-2.385-3.18-2.4C15.015-8.835,13.725-7.89,13.74-6.45Zm.9,4.56h7.29V1.23h1.38V-3H14.64Zm.42-4.56c0-.825.75-1.32,1.86-1.32s1.86.495,1.86,1.32-.75,1.29-1.86,1.29S15.06-5.64,15.06-6.45Zm6.87,2.79h1.38V-7.17H25.2V-8.31H23.31v-3.57H21.93Zm18.78-.81h-12v1.14h2.97V1.23h1.44V-3.33h3.15V1.23h1.38V-3.33h3.06ZM30-8.49c0,1.755,1.89,2.865,4.68,2.85,2.775.015,4.68-1.1,4.68-2.85s-1.9-2.9-4.68-2.91C31.89-11.385,30-10.26,30-8.49Zm1.44,0c-.015-1.1,1.29-1.77,3.24-1.77s3.24.675,3.24,1.77-1.29,1.755-3.24,1.74C32.73-6.735,31.425-7.41,31.44-8.49ZM47.7-9.72H45.15v-1.77H43.77v1.77H41.19v1.14H47.7ZM41.61-4.77a2.866,2.866,0,0,0,2.85,3.06,2.857,2.857,0,0,0,2.85-3.06A2.832,2.832,0,0,0,44.46-7.8,2.84,2.84,0,0,0,41.61-4.77Zm1.23,0a1.681,1.681,0,0,1,1.62-1.86,1.681,1.681,0,0,1,1.62,1.86,1.673,1.673,0,0,1-1.62,1.86A1.673,1.673,0,0,1,42.84-4.77ZM48.33.63h1.29V-5.28h1.53V1.23h1.32V-11.88H51.15v5.46H49.62v-5.16H48.33ZM65.7-6.45H53.73v1.11h5.28V-4.2H55.17v1.08h7.65v.99H55.2V1.11h9.36V.03H56.55V-1.11H64.2V-4.2H60.39V-5.34H65.7ZM55.26-7.41h8.91v-4.05H55.26Zm1.38-1.11v-1.83h6.12v1.83ZM77.1-11.88H75.75V-5.1H77.1ZM66.39-6.12l.63,1.08a5.359,5.359,0,0,0,3.4-2.985A5.243,5.243,0,0,0,73.71-5.31l.69-1.08c-2.04-.57-3.3-2.055-3.3-3.66h2.88v-1.14H66.75v1.14h2.94A4.325,4.325,0,0,1,66.39-6.12Zm2.1,2.7h7.26v1.17h-7.2V1.11h9V.03H69.9V-1.23h7.23V-4.5H68.49Zm24.75-8.46H91.89V1.23h1.35ZM82.44-1.83h.87a22.774,22.774,0,0,0,4.83-.39l-.12-1.17A18.978,18.978,0,0,1,83.79-3V-9.18h3.63v-1.14H82.44Zm4.08-3.96h2.7V.6h1.32V-11.61H89.22v4.68h-2.7Zm18.84-6.09h-1.41V1.26h1.41ZM94.92-6.3c0,2.835,1.425,4.62,3.39,4.62s3.4-1.785,3.39-4.62c.015-2.805-1.425-4.59-3.39-4.59S94.92-9.105,94.92-6.3Zm1.35,0c0-2.055.84-3.345,2.04-3.36,1.215.015,2.055,1.305,2.04,3.36.015,2.085-.825,3.375-2.04,3.36C97.11-2.925,96.27-4.215,96.27-6.3Zm21.66-5.58h-1.38v4.86h-2.61v1.11h2.61V1.26h1.38ZM107.58-1.83h1.02a37.628,37.628,0,0,0,6-.39l-.15-1.14a31.411,31.411,0,0,1-5.46.39V-5.91h4.17V-7.02h-4.17V-9.57h4.74v-1.14h-6.15Zm27.15.27H122.7V-.39h12.03ZM123.72-9.48h2.01V-5.1h-1.98v1.11h9.84V-5.1h-1.98V-9.48h2.01v-1.14h-9.9Zm3.39,4.38V-9.48h3.15V-5.1Zm20.13,3.6h-5.37V-3.81h4.2V-4.95h-8.01V-6.84h7.71v-4.11h-9.12v1.14h7.74v1.83h-7.71v4.17h3.81V-1.5h-5.28V-.33h12.03Zm9.09-10.11h-1.32v3.06h-1.83v1.14h1.83v3.45h1.32Zm-8.64,6.39.75,1.11a4.836,4.836,0,0,0,2.61-2.775,4.52,4.52,0,0,0,2.46,2.475l.72-1.08a3.945,3.945,0,0,1-2.55-3.57v-.66h2.22v-1.14h-5.88v1.14h2.34v.66A4.21,4.21,0,0,1,147.69-5.22ZM150-2.19h7.53V1.23h1.38V-3.33H150Zm7.59-1.68h1.32v-8.01h-1.32Zm13.29-1.02h-7.74V-6.78h7.32V-7.89h-7.32V-9.66h7.62V-10.8h-9.03v7.02h9.15ZM160.23-.42h12.03V-1.56H160.23ZM180.48-11.1h-1.41L175.65,1.59h1.41ZM184.5,0h6.42V-1.38h-4.8v-9.24H184.5Zm7.62,0h6.42V-1.38h-4.8v-9.24h-1.62Zm7.62-10.62V0h1.53V-7.68h.09l3.12,7.65h1.29l3.12-7.62h.09V0h1.53V-10.62h-1.95L205.2-2.4h-.12l-3.39-8.22Zm19.83,2.07V-10.8h-1.41v2.25a6.76,6.76,0,0,1-3.39,5.94l.87,1.11a6.971,6.971,0,0,0,3.24-4.26,6.594,6.594,0,0,0,3.21,4.02l.84-1.11A6.3,6.3,0,0,1,219.57-8.55Zm1.92,2.16h2.91V1.26h1.38V-11.88H224.4v4.35h-2.91Zm16.74-5.49h-1.41V1.26h1.41ZM228.06-1.86h6.3V-10.8h-1.35v3.39h-3.54V-10.8h-1.41Zm1.41-1.17v-3.3h3.54v3.3Zm17.04-6.99v-.99h-1.44v.99c-.03,2.145-2.295,4.155-4.77,4.62l.6,1.17a7.189,7.189,0,0,0,4.9-3.705A7.021,7.021,0,0,0,250.68-4.23l.63-1.17C248.79-5.865,246.525-7.875,246.51-10.02ZM239.85-.48h12.03V-1.65H239.85Zm24.54-1.08h-5.37V-4.59h3.93v-6.24h-9.21v6.24h3.9v3.03h-5.28V-.39h12.03Zm-9.3-4.11V-9.72h6.48v4.05Zm21.03-6.21H274.8v6.96h1.32ZM265.5-5.49h.84a24.534,24.534,0,0,0,4.83-.3l-.06-1.14a21.619,21.619,0,0,1-4.23.33v-3.45h3.66v-1.11H265.5Zm1.77,6.57h9.3V-.03h-7.92V-1.2h7.47V-4.41h-8.85V-3.3h7.5v1.05h-7.5Zm2.46-9.03h2.49v2.94h1.32v-6.6h-1.32v2.58h-2.49Z" transform="translate(42 1994)"/>
      <rect id="사각형_5467" data-name="사각형 5467" width="5" height="20" transform="translate(29 1979)" fill="#1d73ec"/>
    </g>
    <g id="그룹_27821" data-name="그룹 27821">
      <path id="패스_11532" data-name="패스 11532" d="M12.45-4.5H.48v1.14H5.76V1.23H7.11V-3.36h5.34ZM1.14-6.57l.54,1.08A6.5,6.5,0,0,0,6.465-8.355,6.529,6.529,0,0,0,11.28-5.49l.51-1.08C9.3-6.915,7.275-8.385,7.26-9.99h4.08V-11.1H1.59v1.11H5.67C5.64-8.385,3.615-6.915,1.14-6.57ZM17.76-9.99v-1.26H16.35v1.26a4.743,4.743,0,0,1-3.3,4.38l.72,1.08a5.516,5.516,0,0,0,3.3-3.2A5.416,5.416,0,0,0,20.31-4.74l.72-1.11A4.431,4.431,0,0,1,17.76-9.99ZM15-2.25h7.5V1.23h1.38V-3.36H15Zm7.5-1.74h1.38v-7.89H22.5Zm13.95-7.89H35.07v5.19H32.1v1.17h2.97V1.23h1.38ZM25.47-2.28l.75,1.08c4.44-2.19,5.925-5.475,5.94-9.27H26.07v1.11h4.68C30.51-6.36,28.95-3.975,25.47-2.28ZM43.38-10.5H38.4v1.14h3.63V-6.9h-3.6v5.07h.87a26.792,26.792,0,0,0,4.92-.36l-.09-1.14A24.627,24.627,0,0,1,39.78-3V-5.76h3.6ZM44.97.57h1.29V-5.64h1.68V1.23h1.32V-11.88H47.94v5.1H46.26v-4.83H44.97ZM64.62-11.88H63.21V1.26h1.41ZM54.18-6.3c0,2.835,1.425,4.62,3.39,4.62s3.405-1.785,3.39-4.62c.015-2.805-1.425-4.59-3.39-4.59S54.18-9.105,54.18-6.3Zm1.35,0c0-2.055.84-3.345,2.04-3.36,1.215.015,2.055,1.305,2.04,3.36.015,2.085-.825,3.375-2.04,3.36C56.37-2.925,55.53-4.215,55.53-6.3ZM70.77-9.78v-1.41H69.39V-9.9a4.72,4.72,0,0,1-3.24,4.44l.75,1.11A5.381,5.381,0,0,0,70.1-7.545,5.327,5.327,0,0,0,73.2-4.71l.75-1.11A4.278,4.278,0,0,1,70.77-9.78ZM67.92-1.23c0,1.56,1.68,2.46,4.41,2.46,2.685,0,4.35-.9,4.35-2.46,0-1.53-1.665-2.415-4.35-2.43C69.6-3.645,67.92-2.76,67.92-1.23Zm1.38,0c0-.825,1.125-1.32,3.03-1.32,1.875,0,2.985.495,3,1.32-.015.885-1.125,1.35-3,1.35C70.425.12,69.3-.345,69.3-1.23Zm5.88-2.73h1.38V-7.41h1.89V-8.58H76.56v-3.3H75.18Zm17.67-7.92H91.47v7.89h1.38ZM82.11-5.31l.72,1.11a5.561,5.561,0,0,0,3.33-3.165,5.272,5.272,0,0,0,3.24,2.8l.72-1.08a4.321,4.321,0,0,1-3.3-3.9v-.21H89.7v-1.14H82.47v1.14h2.94v.21A4.588,4.588,0,0,1,82.11-5.31ZM83.97-1.2c0,1.575,1.695,2.49,4.47,2.49S92.88.375,92.88-1.2,91.2-3.72,88.44-3.72,83.97-2.79,83.97-1.2Zm1.41,0c0-.9,1.125-1.41,3.06-1.41s3.075.51,3.09,1.41C91.515-.315,90.36.2,88.44.18,86.505.2,85.38-.315,85.38-1.2Zm20.4-9.24h-4.65v-1.5H99.75v1.5H95.07V-9.3h10.71ZM94.47-2.25h5.28V1.26h1.38V-2.25h5.37V-3.39H94.47Zm1.62-4.17c-.015,1.425,1.62,2.205,4.35,2.22,2.73-.015,4.365-.8,4.38-2.22-.015-1.41-1.65-2.205-4.38-2.19C97.71-8.625,96.075-7.83,96.09-6.42Zm1.44,0c-.015-.735,1.035-1.155,2.91-1.14,1.89-.015,2.925.4,2.94,1.14-.015.75-1.05,1.17-2.94,1.17C98.565-5.25,97.515-5.67,97.53-6.42Zm17.22-2.13V-10.8h-1.38v2.25a6.778,6.778,0,0,1-3.39,5.91l.87,1.11a7,7,0,0,0,3.21-4.2,6.84,6.84,0,0,0,3.12,3.96l.87-1.11A6.43,6.43,0,0,1,114.75-8.55Zm4.29,9.78h1.38V-5.46h2.1v-1.2h-2.1v-5.22h-1.38Zm14.61-13.11h-1.38v3.57h-2.52V-7.2h2.52v4.95h1.38ZM122.7-5.01l.72,1.14a5.432,5.432,0,0,0,3.3-3.165,5.23,5.23,0,0,0,3.12,2.865l.72-1.11a4.293,4.293,0,0,1-3.15-3.93v-.51h2.82v-1.14h-7.08v1.14H126v.51A4.578,4.578,0,0,1,122.7-5.01ZM125.13.96h8.85V-.15h-7.47V-3.12h-1.38ZM145.08-11.1h-6.09v6.33h1.02a31.787,31.787,0,0,0,6.06-.36l-.18-1.11a26.4,26.4,0,0,1-5.49.36V-7.41h4.44V-8.52H140.4V-9.96h4.68ZM140.34,1.08h8.4V-3.51h-8.4Zm1.38-1.14V-2.43h5.64V-.06Zm5.64-4.11h1.38V-7.53h1.89V-8.7h-1.89v-3.18h-1.38Zm8.4-3.84V-9.42h3v-1.14h-7.41v1.14h3v1.41a6.554,6.554,0,0,1-3.45,5.64l.81,1.11a7.079,7.079,0,0,0,3.375-4.2,6.575,6.575,0,0,0,3.375,3.87l.78-1.11A5.968,5.968,0,0,1,155.76-8.01Zm4.65,9.24h1.41V-11.88h-1.41Zm13.56-12.12h-6.63v1.14h5.25a16.981,16.981,0,0,1-.33,3.36l1.38.12a21.433,21.433,0,0,0,.33-3.87Zm-7.41,5.76.12,1.11a49.859,49.859,0,0,0,8.19-.54l-.09-1.02a41.072,41.072,0,0,1-4.17.36V-7.95h-1.38v2.775C168.27-5.145,167.355-5.13,166.56-5.13ZM168.54.96h8.91V-.15h-7.53V-2.91h-1.38Zm7.08-2.97h1.41V-6.54h1.83V-7.71h-1.83v-4.17h-1.41Zm9.81-8.94h-5.76v1.11h4.35v1.77H179.7v4.14h.96a28.578,28.578,0,0,0,5.58-.33l-.12-1.14a27.213,27.213,0,0,1-5.04.33V-6.99h4.35ZM181.47.93h9V-.21h-7.59v-2.7h-1.41Zm4.8-6.6h2.46v3.45h1.38v-9.66h-1.38v2.16h-2.46v1.11h2.46v1.83h-2.46ZM196.38,0l.96-2.79h4.14L202.44,0h1.74l-3.84-10.62h-1.86L194.67,0Zm1.44-4.14,1.56-4.53h.09l1.545,4.53Zm8.88-6.48h-1.62V0h1.62Zm10.26,6.99c-2.835,0-4.635.9-4.62,2.43-.015,1.53,1.785,2.43,4.62,2.43s4.62-.9,4.62-2.43S219.78-3.63,216.96-3.63Zm-5.91-1.08h11.94V-5.85H217.2V-8.31h-1.38v2.46h-4.77Zm1.38-5.4h7.68a11.631,11.631,0,0,1-.36,3.33l1.38.12a12.466,12.466,0,0,0,.36-3.48v-1.11h-9.06Zm1.29,8.91c-.015-.855,1.23-1.365,3.24-1.38,2,.015,3.24.525,3.24,1.38S218.955.135,216.96.15C214.95.135,213.705-.36,213.72-1.2Zm21.81-4.29h-5.34V-6.9h3.93V-8.01h-7.71v-2.16h7.62v-1.11h-9V-6.9h3.81v1.41h-5.31v1.11h12ZM224.94-1.14c.015,1.515,1.725,2.37,4.56,2.37s4.53-.855,4.53-2.37-1.695-2.385-4.53-2.37C226.665-3.525,224.955-2.67,224.94-1.14Zm1.44,0c-.03-.825,1.125-1.3,3.12-1.32,2,.015,3.135.495,3.15,1.32C232.635-.3,231.5.165,229.5.15,227.505.165,226.35-.3,226.38-1.14Zm20.61-10.74h-1.38V-9.9h-3.3a3.513,3.513,0,0,0-2.64-1.17,3.272,3.272,0,0,0-3.42,3.33,3.272,3.272,0,0,0,3.42,3.33,3.47,3.47,0,0,0,2.655-1.2h3.285v3.42h1.38Zm-9.42,4.14a2.016,2.016,0,0,1,2.1-2.1,2.059,2.059,0,0,1,2.1,2.1,2.05,2.05,0,0,1-2.1,2.1A2.008,2.008,0,0,1,237.57-7.74Zm.9,8.7h8.85V-.15h-7.47V-3.21h-1.38Zm4.47-9.72h2.67v2.01h-2.67a3.592,3.592,0,0,0,.15-.99A3.723,3.723,0,0,0,242.94-8.76Zm16.05-2.28h-8.97v1.11h7.59v.03a19.926,19.926,0,0,1-.39,4.47h-8.67v1.14h5.25V1.26h1.41V-4.29h5.31V-5.43h-1.89a21.616,21.616,0,0,0,.36-4.47Zm9.39.57h-6.72v1.11H267a30.088,30.088,0,0,1-.39,4.74l1.38.09a32.256,32.256,0,0,0,.39-5.13Zm-7.44,7.74.15,1.14a48.569,48.569,0,0,0,8.13-.48l-.09-1.02c-1.32.15-2.745.24-4.14.3V-6.72h-1.38v3.96C262.665-2.73,261.75-2.73,260.94-2.73Zm8.94,3.96h1.41V-5.28h2.01V-6.45h-2.01v-5.43h-1.41Zm14.94-13.11H283.5V1.23h1.32ZM273.39-2.37l.84,1.02a6.534,6.534,0,0,0,2.64-3.96,6.1,6.1,0,0,0,2.58,3.66l.84-1.02a6.247,6.247,0,0,1-2.76-5.55V-9.27h2.25v-1.14h-6v1.14h2.4v1.05A6.766,6.766,0,0,1,273.39-2.37Zm5.43-3.72h2.04V.57h1.32V-11.61h-1.32v4.38h-2.04Z" transform="translate(42 2030)"/>
      <rect id="사각형_5468" data-name="사각형 5468" width="5" height="20" transform="translate(29 2015)" fill="#4189f0"/>
    </g>
    <g id="그룹_27819" data-name="그룹 27819">
      <path id="패스_11527" data-name="패스 11527" d="M6.87-7.8H8.43c-.06-1.725-1.56-2.955-3.72-2.94C2.565-10.755.945-9.54.93-7.71.945-6.225,2-5.355,3.72-4.89l1.23.33c1.14.3,2.01.675,2.01,1.62,0,1.02-.975,1.71-2.34,1.71-1.23,0-2.25-.555-2.34-1.71H.66C.765-1,2.25.18,4.62.18c2.505,0,3.945-1.32,3.93-3.12C8.565-4.845,6.87-5.6,5.52-5.91L4.47-6.18C3.645-6.405,2.55-6.8,2.55-7.8c0-.9.825-1.56,2.13-1.56C5.895-9.36,6.75-8.79,6.87-7.8ZM13.14.15a3.147,3.147,0,0,0,3.33-2.16H14.88a1.789,1.789,0,0,1-1.71.87,2.145,2.145,0,0,1-2.25-2.37h5.64v-.54c.015-2.88-1.71-4.005-3.54-4.02-2.2.015-3.66,1.7-3.66,4.14C9.36-1.455,10.8.165,13.14.15ZM10.92-4.68a2.142,2.142,0,0,1,2.13-2.1,1.955,1.955,0,0,1,1.98,2.1ZM21.09.15a3.147,3.147,0,0,0,3.33-2.16H22.83a1.789,1.789,0,0,1-1.71.87,2.145,2.145,0,0,1-2.25-2.37h5.64v-.54c.015-2.88-1.71-4.005-3.54-4.02-2.2.015-3.66,1.7-3.66,4.14C17.31-1.455,18.75.165,21.09.15ZM18.87-4.68A2.142,2.142,0,0,1,21-6.78a1.955,1.955,0,0,1,1.98,2.1ZM28.95,3.15c2.055,0,3.6-.93,3.6-2.97V-7.95H31.02v1.29H30.9a2.406,2.406,0,0,0-2.28-1.41c-1.935.015-3.36,1.47-3.36,4.02,0,2.535,1.455,3.93,3.33,3.93A2.432,2.432,0,0,0,30.9-1.44h.09V.12c0,1.245-.78,1.77-2.01,1.77-1.05,0-1.755-.36-1.89-1.11H25.47C25.62,2.265,26.94,3.15,28.95,3.15Zm-2.1-7.17c0-1.53.7-2.715,2.1-2.7,1.335-.015,2.07,1.08,2.07,2.7s-.75,2.61-2.07,2.61C27.57-1.41,26.85-2.475,26.85-4.02ZM37.44.15a3.147,3.147,0,0,0,3.33-2.16H39.18a1.789,1.789,0,0,1-1.71.87,2.145,2.145,0,0,1-2.25-2.37h5.64v-.54c.015-2.88-1.71-4.005-3.54-4.02-2.205.015-3.66,1.7-3.66,4.14C33.66-1.455,35.1.165,37.44.15ZM35.22-4.68a2.142,2.142,0,0,1,2.13-2.1,1.955,1.955,0,0,1,1.98,2.1Zm8.31-.03a1.815,1.815,0,0,1,1.86-2.01,1.624,1.624,0,0,1,1.65,1.86V0h1.59V-5.07c-.015-1.95-1.095-2.985-2.73-3a2.413,2.413,0,0,0-2.34,1.41h-.09V-7.95h-1.5V0h1.56ZM53.49.15a3.147,3.147,0,0,0,3.33-2.16H55.23a1.789,1.789,0,0,1-1.71.87,2.145,2.145,0,0,1-2.25-2.37h5.64v-.54c.015-2.88-1.71-4.005-3.54-4.02-2.205.015-3.66,1.7-3.66,4.14C49.71-1.455,51.15.165,53.49.15ZM51.27-4.68a2.142,2.142,0,0,1,2.13-2.1,1.955,1.955,0,0,1,1.98,2.1ZM64.8,0c3.225,0,5.085-2.01,5.1-5.31-.015-3.315-1.875-5.3-5.01-5.31H61.35V0ZM62.97-1.41v-7.8H64.8c2.31.015,3.495,1.395,3.51,3.9-.015,2.5-1.2,3.9-3.6,3.9Zm7.77-.84A2.439,2.439,0,0,0,73.44.18a2.466,2.466,0,0,0,2.34-1.26h.06V0h1.53V-5.28c0-2.31-1.845-2.775-3.12-2.79-1.875.015-3.105.975-3.24,2.28h1.56a1.52,1.52,0,0,1,1.62-1.02c1.08.015,1.62.54,1.62,1.44v.63c-.345.015-1.56.075-2.1.12C72.3-4.53,70.755-4.05,70.74-2.25Zm1.53.03c.015-.8.66-1.185,1.68-1.26l1.86-.12v.72a1.846,1.846,0,0,1-2.04,1.8C72.915-1.08,72.285-1.47,72.27-2.22ZM82.53-7.95H80.91V-9.87H79.35v1.92H78.18v1.23h1.17v4.71A2.094,2.094,0,0,0,81.66.12a5.739,5.739,0,0,0,.96-.09V-1.32a6.4,6.4,0,0,1-.78.03c-.495,0-.945-.15-.93-1.05V-6.72h1.62Zm.69,5.7A2.439,2.439,0,0,0,85.92.18a2.466,2.466,0,0,0,2.34-1.26h.06V0h1.53V-5.28c0-2.31-1.845-2.775-3.12-2.79-1.875.015-3.105.975-3.24,2.28h1.56a1.52,1.52,0,0,1,1.62-1.02c1.08.015,1.62.54,1.62,1.44v.63c-.345.015-1.56.075-2.1.12C84.78-4.53,83.235-4.05,83.22-2.25Zm1.53.03c.015-.8.66-1.185,1.68-1.26l1.86-.12v.72a1.846,1.846,0,0,1-2.04,1.8C85.4-1.08,84.765-1.47,84.75-2.22ZM95.52,0l.96-2.79h4.14L101.58,0h1.74L99.48-10.62H97.62L93.81,0Zm1.44-4.14,1.56-4.53h.09l1.545,4.53Zm8.7-.57a1.815,1.815,0,0,1,1.86-2.01,1.624,1.624,0,0,1,1.65,1.86V0h1.59V-5.07c-.015-1.95-1.1-2.985-2.73-3a2.413,2.413,0,0,0-2.34,1.41h-.09V-7.95h-1.5V0h1.56Zm6.15,2.46a2.439,2.439,0,0,0,2.7,2.43,2.466,2.466,0,0,0,2.34-1.26h.06V0h1.53V-5.28c0-2.31-1.845-2.775-3.12-2.79-1.875.015-3.105.975-3.24,2.28h1.56a1.52,1.52,0,0,1,1.62-1.02c1.08.015,1.62.54,1.62,1.44v.63c-.345.015-1.56.075-2.1.12C113.37-4.53,111.825-4.05,111.81-2.25Zm1.53.03c.015-.8.66-1.185,1.68-1.26l1.86-.12v.72a1.846,1.846,0,0,1-2.04,1.8C113.985-1.08,113.355-1.47,113.34-2.22Zm8.1-8.4h-1.56V0h1.56Zm2.43,13.59a2.547,2.547,0,0,0,2.58-1.92l3.27-9h-1.68L126.03-1.8h-.06l-2.01-6.15h-1.68L125.19.12l-.18.51c-.39,1.005-.795,1.035-1.26,1.02-.24.015-.54,0-.72,0V2.94A4.737,4.737,0,0,0,123.87,2.97Zm11.16-8.76h1.5c-.15-1.365-1.26-2.265-3.03-2.28-1.845.015-3.075.99-3.09,2.4.015,1.095.765,1.86,2.19,2.19l1.23.27c.855.18,1.245.51,1.23,1.02.015.675-.645,1.1-1.65,1.11q-1.417-.022-1.62-1.08h-1.62C130.38-.69,131.5.165,133.41.15c2.04.015,3.255-1.02,3.27-2.46-.015-1.11-.72-1.815-2.19-2.16l-1.26-.27c-.87-.21-1.245-.555-1.26-1.02.015-.6.645-1.065,1.53-1.08A1.417,1.417,0,0,1,135.03-5.79ZM137.76,0h1.56V-7.95h-1.56Zm-.21-10.11a.949.949,0,0,0,.99.93.951.951,0,0,0,.96-.93.951.951,0,0,0-.96-.93A.949.949,0,0,0,137.55-10.11Zm7.71,4.32h1.5c-.15-1.365-1.26-2.265-3.03-2.28-1.845.015-3.075.99-3.09,2.4.015,1.095.765,1.86,2.19,2.19l1.23.27c.855.18,1.245.51,1.23,1.02.015.675-.645,1.1-1.65,1.11q-1.417-.022-1.62-1.08H140.4c.21,1.47,1.335,2.325,3.24,2.31,2.04.015,3.255-1.02,3.27-2.46-.015-1.11-.72-1.815-2.19-2.16l-1.26-.27c-.87-.21-1.245-.555-1.26-1.02.015-.6.645-1.065,1.53-1.08A1.417,1.417,0,0,1,145.26-5.79ZM151.32,0h1.62V-3.72h2.16c2.46,0,3.69-1.485,3.69-3.45s-1.215-3.435-3.69-3.45h-3.78Zm1.62-5.1V-9.21h2.01a1.92,1.92,0,0,1,2.22,2.04,1.946,1.946,0,0,1-2.22,2.07Zm8.52-5.52H159.9V0h1.56Zm1.08,8.37a2.439,2.439,0,0,0,2.7,2.43,2.466,2.466,0,0,0,2.34-1.26h.06V0h1.53V-5.28c0-2.31-1.845-2.775-3.12-2.79-1.875.015-3.1.975-3.24,2.28h1.56a1.52,1.52,0,0,1,1.62-1.02c1.08.015,1.62.54,1.62,1.44v.63c-.345.015-1.56.075-2.1.12C164.1-4.53,162.555-4.05,162.54-2.25Zm1.53.03c.015-.8.66-1.185,1.68-1.26l1.86-.12v.72a1.846,1.846,0,0,1-2.04,1.8C164.715-1.08,164.085-1.47,164.07-2.22Zm10.26-5.73h-1.62V-9.87h-1.56v1.92h-1.17v1.23h1.17v4.71A2.094,2.094,0,0,0,173.46.12a5.739,5.739,0,0,0,.96-.09V-1.32a6.4,6.4,0,0,1-.78.03c-.5,0-.945-.15-.93-1.05V-6.72h1.62Zm4.86,0h-1.71v-.69c0-.78.39-1.11,1.2-1.11a2.878,2.878,0,0,1,.66.06v-1.32a7.032,7.032,0,0,0-1.05-.09,2.109,2.109,0,0,0-2.37,2.22v.93h-1.23v1.23h1.23V0h1.56V-6.72h1.71Zm4.035,8.1c2.235.015,3.7-1.635,3.72-4.08-.015-2.49-1.485-4.125-3.72-4.14-2.25.015-3.72,1.65-3.72,4.14C179.505-1.485,180.975.165,183.225.15Zm-2.16-4.08c.015-1.53.705-2.835,2.16-2.82,1.44-.015,2.13,1.29,2.13,2.82,0,1.5-.69,2.79-2.13,2.79C181.77-1.14,181.08-2.43,181.065-3.93ZM188.025,0h1.56V-4.86a1.776,1.776,0,0,1,1.89-1.77,2.6,2.6,0,0,1,.81.09v-1.5c-.15-.015-.465-.03-.66-.03a2.066,2.066,0,0,0-2.01,1.38h-.09V-7.95h-1.5Zm4.98,0h1.56V-4.89a1.717,1.717,0,0,1,1.62-1.83,1.411,1.411,0,0,1,1.47,1.44V0h1.53V-5.07a1.527,1.527,0,0,1,1.59-1.65,1.4,1.4,0,0,1,1.5,1.53V0h1.56V-5.34c0-1.815-1.02-2.715-2.46-2.73a2.524,2.524,0,0,0-2.4,1.41h-.06a2.218,2.218,0,0,0-2.16-1.41,2.2,2.2,0,0,0-2.16,1.41h-.09V-7.95h-1.5Zm27.03-1.56h-12.03V-.39h12.03Zm-11.01-7.92h2.01V-5.1h-1.98v1.11h9.84V-5.1h-1.98V-9.48h2.01v-1.14h-9.9Zm3.39,4.38V-9.48h3.15V-5.1Zm20.13,3.6h-5.37V-3.81h4.2V-4.95h-8.01V-6.84h7.71v-4.11h-9.12v1.14h7.74v1.83h-7.71v4.17h3.81V-1.5h-5.28V-.33h12.03Zm9.09-10.11h-1.32v3.06h-1.83v1.14h1.83v3.45h1.32Zm-8.64,6.39.75,1.11a4.836,4.836,0,0,0,2.61-2.775,4.52,4.52,0,0,0,2.46,2.475l.72-1.08a3.945,3.945,0,0,1-2.55-3.57v-.66h2.22v-1.14h-5.88v1.14h2.34v.66A4.21,4.21,0,0,1,232.995-5.22Zm2.31,3.03h7.53V1.23h1.38V-3.33H235.3Zm7.59-1.68h1.32v-8.01H242.9Zm13.29-1.02h-7.74V-6.78h7.32V-7.89h-7.32V-9.66h7.62V-10.8h-9.03v7.02h9.15ZM245.535-.42h12.03V-1.56h-12.03Z" transform="translate(42 2102)"/>
      <rect id="사각형_5469" data-name="사각형 5469" width="5" height="20" transform="translate(29 2087)" fill="#88b6f7"/>
    </g>
    <path id="패스_11528" data-name="패스 11528" d="M.27-10.62,4.11-4.17V0H5.73V-4.17l3.84-6.45H7.74L4.98-5.79H4.86L2.1-10.62ZM12.375.15C14.61.165,16.08-1.485,16.1-3.93c-.015-2.49-1.485-4.125-3.72-4.14-2.25.015-3.72,1.65-3.72,4.14C8.655-1.485,10.125.165,12.375.15Zm-2.16-4.08c.015-1.53.7-2.835,2.16-2.82,1.44-.015,2.13,1.29,2.13,2.82,0,1.5-.69,2.79-2.13,2.79S10.23-2.43,10.215-3.93ZM17.175,0h1.56V-4.89a1.717,1.717,0,0,1,1.62-1.83,1.411,1.411,0,0,1,1.47,1.44V0h1.53V-5.07a1.527,1.527,0,0,1,1.59-1.65,1.4,1.4,0,0,1,1.5,1.53V0h1.56V-5.34c0-1.815-1.02-2.715-2.46-2.73a2.524,2.524,0,0,0-2.4,1.41h-.06a2.218,2.218,0,0,0-2.16-1.41,2.2,2.2,0,0,0-2.16,1.41h-.09V-7.95h-1.5Zm12.27,0h1.56V-7.95h-1.56Zm-.21-10.11a.949.949,0,0,0,.99.93.951.951,0,0,0,.96-.93.951.951,0,0,0-.96-.93A.949.949,0,0,0,29.235-10.11Zm16.83-1.77h-1.38V1.23h1.38ZM35.415-2.34l.75,1.08a6.567,6.567,0,0,0,3.33-3.9,6.283,6.283,0,0,0,3.33,3.66l.75-1.08a5.685,5.685,0,0,1-3.42-5.07v-.87H43.1V-9.63h-2.94v-1.98h-1.38v1.98h-3v1.11h3v.87A5.976,5.976,0,0,1,35.415-2.34Zm19.62-8.13h-6.72v1.11h5.34a30.087,30.087,0,0,1-.39,4.74l1.38.09a32.259,32.259,0,0,0,.39-5.13ZM47.6-2.73l.15,1.14a48.568,48.568,0,0,0,8.13-.48l-.09-1.02c-1.32.15-2.745.24-4.14.3V-6.72h-1.38v3.96C49.32-2.73,48.4-2.73,47.6-2.73Zm8.94,3.96h1.41V-5.28h2.01V-6.45h-2.01v-5.43h-1.41ZM72.2-5.49h-2.91V-7.23a2.133,2.133,0,0,0,1.59-1.95c.015-1.56-1.8-2.475-4.68-2.46-2.88-.015-4.68.9-4.68,2.46a2.152,2.152,0,0,0,1.59,1.95v1.74h-2.88v1.14H72.2ZM61.635-1.14c.015,1.53,1.71,2.355,4.56,2.37,2.835-.015,4.53-.84,4.53-2.37,0-1.485-1.7-2.325-4.53-2.31C63.345-3.465,61.65-2.625,61.635-1.14Zm1.32-8.04c-.015-.885,1.2-1.4,3.24-1.38,2.04-.015,3.27.495,3.27,1.38,0,.87-1.23,1.365-3.27,1.38C64.155-7.815,62.94-8.31,62.955-9.18Zm.12,8.04c-.03-.8,1.125-1.245,3.12-1.26,2,.015,3.135.465,3.15,1.26C69.33-.3,68.19.165,66.195.15,64.2.165,63.045-.3,63.075-1.14Zm1.44-4.35V-6.87a11.484,11.484,0,0,0,1.68.12,11.914,11.914,0,0,0,1.71-.12v1.38ZM87.975-1.5h-5.37V-3.81h4.2V-4.95H78.8V-6.84h7.71v-4.11h-9.12v1.14h7.74v1.83h-7.71v4.17h3.81V-1.5h-5.28V-.33h12.03ZM91.4-11.52h-1.38v4.86h3.75v1.35h-5.31V-4.2h11.97V-5.31h-5.28V-6.66h3.72v-4.86h-1.38v1.35H91.4ZM89.355.09l.51,1.08A6.353,6.353,0,0,0,94.44-1.32a6.361,6.361,0,0,0,4.605,2.49l.48-1.08c-2.55-.3-4.4-1.59-4.38-3.15v-.33h-1.41v.33C93.72-1.5,91.875-.21,89.355.09ZM91.4-7.77V-9.09h6.09v1.32Zm24.06-4.11h-1.35V1.23h1.35Zm-10.8,10.05h.87a22.774,22.774,0,0,0,4.83-.39l-.12-1.17a18.978,18.978,0,0,1-4.23.39V-9.18h3.63v-1.14h-4.98Zm4.08-3.96h2.7V.6h1.32V-11.61h-1.32v4.68h-2.7Zm18.84-6.09h-1.41V1.26h1.41ZM117.135-6.3c0,2.835,1.425,4.62,3.39,4.62s3.4-1.785,3.39-4.62c.015-2.805-1.425-4.59-3.39-4.59S117.135-9.105,117.135-6.3Zm1.35,0c0-2.055.84-3.345,2.04-3.36,1.215.015,2.055,1.305,2.04,3.36.015,2.085-.825,3.375-2.04,3.36C119.325-2.925,118.485-4.215,118.485-6.3Zm21.66-5.58h-1.38v4.86h-2.61v1.11h2.61V1.26h1.38ZM129.8-1.83h1.02a37.628,37.628,0,0,0,6-.39l-.15-1.14a31.411,31.411,0,0,1-5.46.39V-5.91h4.17V-7.02h-4.17V-9.57h4.74v-1.14H129.8Zm27.12-3.18h-12V-3.9h5.43v2.43h1.35V-3.9h5.22ZM146.385.96h9.21V-.15h-7.83V-2.64h-1.38Zm.09-7.14h8.85v-5.28h-1.38v1.59h-6.09v-1.59h-1.38Zm1.38-1.11V-8.82h6.09v1.53Zm14.19-2.49v-1.44h-1.38v1.35a4.619,4.619,0,0,1-3.24,4.38l.75,1.14a5.486,5.486,0,0,0,3.21-3.195,5.176,5.176,0,0,0,3.09,2.895l.75-1.08A4.4,4.4,0,0,1,162.045-9.78Zm-2.58,7.47H167V1.23h1.38V-3.42h-8.91Zm4.74-5.76H167v3.96h1.38v-7.77H167v2.64h-2.79Zm20.97,6.51h-12.03V-.39h12.03Zm-11.01-7.92h2.01V-5.1H174.2v1.11h9.84V-5.1h-1.98V-9.48h2.01v-1.14h-9.9Zm3.39,4.38V-9.48h3.15V-5.1Zm20.13,3.6h-5.37V-3.81h4.2V-4.95h-8.01V-6.84h7.71v-4.11H187.1v1.14h7.74v1.83h-7.71v4.17h3.81V-1.5h-5.28V-.33h12.03Zm9.09-10.11h-1.32v3.06h-1.83v1.14h1.83v3.45h1.32Zm-8.64,6.39.75,1.11a4.836,4.836,0,0,0,2.61-2.775,4.52,4.52,0,0,0,2.46,2.475l.72-1.08a3.945,3.945,0,0,1-2.55-3.57v-.66h2.22v-1.14h-5.88v1.14h2.34v.66A4.21,4.21,0,0,1,198.135-5.22Zm2.31,3.03h7.53V1.23h1.38V-3.33h-8.91Zm7.59-1.68h1.32v-8.01h-1.32Zm13.29-1.02h-7.74V-6.78h7.32V-7.89h-7.32V-9.66h7.62V-10.8h-9.03v7.02h9.15ZM210.675-.42H222.7V-1.56h-12.03ZM5.01,10.9H3.6L.18,23.59H1.59ZM9.03,22h6.42V20.62h-4.8V11.38H9.03Zm7.62,0h6.42V20.62h-4.8V11.38H16.65Zm7.62-10.62V22H25.8V14.32h.09l3.12,7.65H30.3l3.12-7.62h.09V22h1.53V11.38H33.09L29.73,19.6h-.12l-3.39-8.22ZM44.1,13.45V11.2H42.69v2.25a6.76,6.76,0,0,1-3.39,5.94l.87,1.11a6.971,6.971,0,0,0,3.24-4.26,6.594,6.594,0,0,0,3.21,4.02l.84-1.11A6.3,6.3,0,0,1,44.1,13.45Zm1.92,2.16h2.91v7.65h1.38V10.12H48.93v4.35H46.02Zm16.74-5.49H61.35V23.26h1.41ZM52.59,20.14h6.3V11.2H57.54v3.39H54V11.2H52.59ZM54,18.97v-3.3h3.54v3.3Zm17.04-6.99v-.99H69.6v.99c-.03,2.145-2.295,4.155-4.77,4.62l.6,1.17a7.189,7.189,0,0,0,4.9-3.705A7.021,7.021,0,0,0,75.21,17.77l.63-1.17C73.32,16.135,71.055,14.125,71.04,11.98Zm-6.66,9.54H76.41V20.35H64.38Zm24.54-1.08H83.55V17.41h3.93V11.17H78.27v6.24h3.9v3.03H76.89v1.17H88.92Zm-9.3-4.11V12.28H86.1v4.05Zm21.03-6.21H99.33v6.96h1.32ZM90.03,16.51h.84a24.534,24.534,0,0,0,4.83-.3l-.06-1.14a21.619,21.619,0,0,1-4.23.33V11.95h3.66V10.84H90.03Zm1.77,6.57h9.3V21.97H93.18V20.8h7.47V17.59H91.8V18.7h7.5v1.05H91.8Zm2.46-9.03h2.49v2.94h1.32v-6.6H96.75v2.58H94.26Z" transform="translate(47 2138)"/>
    <rect id="사각형_5470" data-name="사각형 5470" width="5" height="42" transform="translate(29 2123)" fill="#abcdfa"/>
    <path id="패스_11529" data-name="패스 11529" d="M6.87-7.8H8.43c-.06-1.725-1.56-2.955-3.72-2.94C2.565-10.755.945-9.54.93-7.71.945-6.225,2-5.355,3.72-4.89l1.23.33c1.14.3,2.01.675,2.01,1.62,0,1.02-.975,1.71-2.34,1.71-1.23,0-2.25-.555-2.34-1.71H.66C.765-1,2.25.18,4.62.18c2.505,0,3.945-1.32,3.93-3.12C8.565-4.845,6.87-5.6,5.52-5.91L4.47-6.18C3.645-6.405,2.55-6.8,2.55-7.8c0-.9.825-1.56,2.13-1.56C5.895-9.36,6.75-8.79,6.87-7.8ZM13.14.15a3.147,3.147,0,0,0,3.33-2.16H14.88a1.789,1.789,0,0,1-1.71.87,2.145,2.145,0,0,1-2.25-2.37h5.64v-.54c.015-2.88-1.71-4.005-3.54-4.02-2.2.015-3.66,1.7-3.66,4.14C9.36-1.455,10.8.165,13.14.15ZM10.92-4.68a2.142,2.142,0,0,1,2.13-2.1,1.955,1.955,0,0,1,1.98,2.1ZM21.09.15a3.147,3.147,0,0,0,3.33-2.16H22.83a1.789,1.789,0,0,1-1.71.87,2.145,2.145,0,0,1-2.25-2.37h5.64v-.54c.015-2.88-1.71-4.005-3.54-4.02-2.2.015-3.66,1.7-3.66,4.14C17.31-1.455,18.75.165,21.09.15ZM18.87-4.68A2.142,2.142,0,0,1,21-6.78a1.955,1.955,0,0,1,1.98,2.1ZM28.95,3.15c2.055,0,3.6-.93,3.6-2.97V-7.95H31.02v1.29H30.9a2.406,2.406,0,0,0-2.28-1.41c-1.935.015-3.36,1.47-3.36,4.02,0,2.535,1.455,3.93,3.33,3.93A2.432,2.432,0,0,0,30.9-1.44h.09V.12c0,1.245-.78,1.77-2.01,1.77-1.05,0-1.755-.36-1.89-1.11H25.47C25.62,2.265,26.94,3.15,28.95,3.15Zm-2.1-7.17c0-1.53.7-2.715,2.1-2.7,1.335-.015,2.07,1.08,2.07,2.7s-.75,2.61-2.07,2.61C27.57-1.41,26.85-2.475,26.85-4.02ZM37.44.15a3.147,3.147,0,0,0,3.33-2.16H39.18a1.789,1.789,0,0,1-1.71.87,2.145,2.145,0,0,1-2.25-2.37h5.64v-.54c.015-2.88-1.71-4.005-3.54-4.02-2.205.015-3.66,1.7-3.66,4.14C33.66-1.455,35.1.165,37.44.15ZM35.22-4.68a2.142,2.142,0,0,1,2.13-2.1,1.955,1.955,0,0,1,1.98,2.1Zm8.31-.03a1.815,1.815,0,0,1,1.86-2.01,1.624,1.624,0,0,1,1.65,1.86V0h1.59V-5.07c-.015-1.95-1.095-2.985-2.73-3a2.413,2.413,0,0,0-2.34,1.41h-.09V-7.95h-1.5V0h1.56ZM53.49.15a3.147,3.147,0,0,0,3.33-2.16H55.23a1.789,1.789,0,0,1-1.71.87,2.145,2.145,0,0,1-2.25-2.37h5.64v-.54c.015-2.88-1.71-4.005-3.54-4.02-2.205.015-3.66,1.7-3.66,4.14C49.71-1.455,51.15.165,53.49.15ZM51.27-4.68a2.142,2.142,0,0,1,2.13-2.1,1.955,1.955,0,0,1,1.98,2.1ZM61.59,0c3.225,0,5.085-2.01,5.1-5.31-.015-3.315-1.875-5.3-5.01-5.31H58.14V0ZM59.76-1.41v-7.8h1.83c2.31.015,3.495,1.395,3.51,3.9-.015,2.5-1.2,3.9-3.6,3.9ZM68.04,0h1.62V-3.72h2.16c2.46,0,3.69-1.485,3.69-3.45s-1.215-3.435-3.69-3.45H68.04Zm1.62-5.1V-9.21h2.01a1.92,1.92,0,0,1,2.22,2.04A1.946,1.946,0,0,1,71.67-5.1ZM91.38-1.56H79.35V-.39H91.38ZM80.37-9.48h2.01V-5.1H80.4v1.11h9.84V-5.1H88.26V-9.48h2.01v-1.14h-9.9ZM83.76-5.1V-9.48h3.15V-5.1Zm20.13,3.6H98.52V-3.81h4.2V-4.95H94.71V-6.84h7.71v-4.11H93.3v1.14h7.74v1.83H93.33v4.17h3.81V-1.5H91.86V-.33h12.03Zm9.09-10.11h-1.32v3.06h-1.83v1.14h1.83v3.45h1.32Zm-8.64,6.39.75,1.11a4.836,4.836,0,0,0,2.61-2.775,4.52,4.52,0,0,0,2.46,2.475l.72-1.08a3.945,3.945,0,0,1-2.55-3.57v-.66h2.22v-1.14h-5.88v1.14h2.34v.66A4.21,4.21,0,0,1,104.34-5.22Zm2.31,3.03h7.53V1.23h1.38V-3.33h-8.91Zm7.59-1.68h1.32v-8.01h-1.32Zm13.29-1.02h-7.74V-6.78h7.32V-7.89h-7.32V-9.66h7.62V-10.8h-9.03v7.02h9.15ZM116.88-.42h12.03V-1.56H116.88Z" transform="translate(47 2196)"/>
    <path id="패스_11530" data-name="패스 11530" d="M12.45-5.16H7.14v-1.5H5.76v1.5H.48v1.14H12.45ZM1.11-7.11l.45,1.08c2.25-.21,4.1-.96,4.905-2.19.81,1.23,2.64,1.98,4.9,2.19l.42-1.08C9.2-7.29,7.41-8.25,7.245-9.51H11.25v-1.11H7.14v-1.26H5.76v1.26H1.68v1.11h4C5.49-8.25,3.705-7.29,1.11-7.11ZM1.89-.96c.015,1.41,1.7,2.19,4.56,2.19S10.98.45,10.98-.96c0-1.425-1.665-2.205-4.53-2.19C3.585-3.165,1.905-2.385,1.89-.96Zm1.44,0c-.03-.75,1.1-1.155,3.12-1.17,2.01.015,3.135.42,3.15,1.17C9.585-.225,8.46.18,6.45.18,4.425.18,3.3-.225,3.33-.96ZM27.48-11.88H26.16v5.13H24.54v-4.89H23.22V.6h1.32V-5.61h1.62V1.23h1.32ZM16.65-2.22h5.1v-8.19h-5.1Zm1.32-1.11V-9.3h2.46v5.97ZM40.68-6.12H28.74v1.05h5.25v1.08H30.15v1.02H37.8v.99H30.18V1.11h9.36V.06H31.53V-1.02h7.65V-3.99H35.37V-5.07h5.31ZM29.31-7.68l.39,1.05c2.3-.165,4.17-.84,5-1.98.81,1.14,2.67,1.815,4.965,1.98l.42-1.05c-2.55-.15-4.335-.93-4.59-2.04h3.99v-1.05H35.37v-1.17H33.99v1.17H29.91v1.05h3.975C33.615-8.61,31.845-7.83,29.31-7.68Z" transform="translate(47 2232)"/>
    <rect id="사각형_5471" data-name="사각형 5471" width="5" height="20" transform="translate(29 2181)" fill="#cfe3fe"/>
    <rect id="사각형_5716" data-name="사각형 5716" width="5" height="20" transform="translate(29 2217)"/>
    <g id="그룹_27818" data-name="그룹 27818" transform="translate(0 -14)">
      <path id="패스_11531" data-name="패스 11531" d="M10.71-11.88H9.33V1.23h1.38V-5.49h2.04V-6.66H10.71ZM.48-2.28,1.26-1.2a9.843,9.843,0,0,0,6.03-9.3H1.14v1.17H5.865C5.565-6.27,3.78-3.915.48-2.28Zm17.04-7.5v-1.41H16.14V-9.9A4.72,4.72,0,0,1,12.9-5.46l.75,1.11a5.381,5.381,0,0,0,3.2-3.195,5.327,5.327,0,0,0,3.1,2.835l.75-1.11A4.278,4.278,0,0,1,17.52-9.78ZM14.67-1.23c0,1.56,1.68,2.46,4.41,2.46,2.685,0,4.35-.9,4.35-2.46,0-1.53-1.665-2.415-4.35-2.43C16.35-3.645,14.67-2.76,14.67-1.23Zm1.38,0c0-.825,1.125-1.32,3.03-1.32,1.875,0,2.985.495,3,1.32-.015.885-1.125,1.35-3,1.35C17.175.12,16.05-.345,16.05-1.23Zm5.88-2.73h1.38V-7.41H25.2V-8.58H23.31v-3.3H21.93ZM39.6-11.88H38.22v7.47H39.6ZM28.98-8.1c0,1.8,1.485,3.075,3.51,3.09A3.209,3.209,0,0,0,35.97-8.1a3.2,3.2,0,0,0-3.48-3.12C30.465-11.205,28.98-9.945,28.98-8.1Zm1.35,0a1.937,1.937,0,0,1,2.16-1.92,1.9,1.9,0,0,1,2.1,1.92,1.9,1.9,0,0,1-2.1,1.89A1.941,1.941,0,0,1,30.33-8.1Zm.63,9.18H39.6v-4.8H30.96ZM32.34-.06V-2.61h5.91V-.06ZM45.75-9.78v-1.41H44.37V-9.9a4.72,4.72,0,0,1-3.24,4.44l.75,1.11a5.381,5.381,0,0,0,3.195-3.195A5.327,5.327,0,0,0,48.18-4.71l.75-1.11A4.278,4.278,0,0,1,45.75-9.78ZM42.9-1.23c0,1.56,1.68,2.46,4.41,2.46,2.685,0,4.35-.9,4.35-2.46,0-1.53-1.665-2.415-4.35-2.43C44.58-3.645,42.9-2.76,42.9-1.23Zm1.38,0c0-.825,1.125-1.32,3.03-1.32,1.875,0,2.985.495,3,1.32-.015.885-1.125,1.35-3,1.35C45.4.12,44.28-.345,44.28-1.23Zm5.88-2.73h1.38V-7.41h1.89V-8.58H51.54v-3.3H50.16Zm14.43-7.92H63.24v6.75h1.35ZM53.79-6.3l.69,1.08a5.391,5.391,0,0,0,3.33-3.1A5.254,5.254,0,0,0,61.08-5.46l.69-1.08a4.3,4.3,0,0,1-3.27-3.99v-1.02H57.09v1.02A4.584,4.584,0,0,1,53.79-6.3Zm2.19,2.91h7.26v1.11h-7.2V1.11h9V0H57.39V-1.23h7.23V-4.5H55.98Zm21.21-8.49H75.81v3.93H73.74v1.17h2.07v2.85h1.38ZM66.27-9.45h7.68v-1.14H70.8V-12H69.42v1.41H66.27Zm.75,2.94c0,1.41,1.29,2.34,3.09,2.34s3.075-.93,3.09-2.34c-.015-1.38-1.29-2.355-3.09-2.34C68.31-8.865,67.02-7.89,67.02-6.51Zm1.35,0c-.015-.78.69-1.29,1.74-1.29s1.74.51,1.74,1.29-.705,1.29-1.74,1.29S68.355-5.715,68.37-6.51Zm.15,7.59h8.67V-3.27H68.52ZM69.9-.06V-2.19h5.91V-.06Zm24.09-1.5H81.96V-.39H93.99ZM82.98-9.48h2.01V-5.1H83.01v1.11h9.84V-5.1H90.87V-9.48h2.01v-1.14h-9.9ZM86.37-5.1V-9.48h3.15V-5.1ZM106.5-1.5h-5.37V-3.81h4.2V-4.95H97.32V-6.84h7.71v-4.11H95.91v1.14h7.74v1.83H95.94v4.17h3.81V-1.5H94.47V-.33H106.5Zm9.09-10.11h-1.32v3.06h-1.83v1.14h1.83v3.45h1.32Zm-8.64,6.39.75,1.11a4.836,4.836,0,0,0,2.61-2.775,4.52,4.52,0,0,0,2.46,2.475l.72-1.08a3.945,3.945,0,0,1-2.55-3.57v-.66h2.22v-1.14h-5.88v1.14h2.34v.66A4.21,4.21,0,0,1,106.95-5.22Zm2.31,3.03h7.53V1.23h1.38V-3.33h-8.91Zm7.59-1.68h1.32v-8.01h-1.32Zm13.29-1.02H122.4V-6.78h7.32V-7.89H122.4V-9.66h7.62V-10.8h-9.03v7.02h9.15ZM119.49-.42h12.03V-1.56H119.49Z" transform="translate(44 2080)"/>
      <rect id="사각형_5473" data-name="사각형 5473" width="5" height="20" transform="translate(29 2065)" fill="#64a0f3"/>
    </g>
    <path id="패스_11263" data-name="패스 11263" d="M-982,2715h312.7" transform="translate(1010.5 -752)" fill="none" stroke="#eee" stroke-width="1"/>
  </g>
</svg>
