<svg xmlns="http://www.w3.org/2000/svg" xmlns:xlink="http://www.w3.org/1999/xlink" width="195.5" height="16.672" viewBox="0 0 195.5 16.672">
  <defs>
    <linearGradient id="linear-gradient" x1="-0.026" y1="0.214" x2="0.982" y2="1.223" gradientUnits="objectBoundingBox">
      <stop offset="0" stop-color="#02c6ff"/>
      <stop offset="1" stop-color="#1c45f9"/>
    </linearGradient>
    <clipPath id="clip-path">
      <path id="패스_11522" data-name="패스 11522" d="M0,0H195.5V16.672H0Z" transform="translate(0 0)" fill="url(#linear-gradient)"/>
    </clipPath>
  </defs>
  <g id="마스크_그룹_46" data-name="마스크 그룹 46" transform="translate(0 0)" clip-path="url(#clip-path)">
    <path id="패스_10777" data-name="패스 10777" d="M1.92,12.041A3.322,3.322,0,0,1,.512,10.928,2.823,2.823,0,0,1,0,9.248H1.952a1.758,1.758,0,0,0,.569,1.184,2,2,0,0,0,1.415.465,2.19,2.19,0,0,0,1.472-.456,1.484,1.484,0,0,0,.528-1.177,1.276,1.276,0,0,0-.329-.911,2.16,2.16,0,0,0-.814-.544,12.052,12.052,0,0,0-1.354-.416,12.92,12.92,0,0,1-1.767-.584,2.923,2.923,0,0,1-1.16-.92,2.653,2.653,0,0,1-.48-1.664,2.948,2.948,0,0,1,.48-1.68,3.057,3.057,0,0,1,1.343-1.1,4.875,4.875,0,0,1,2-.384A4.171,4.171,0,0,1,6.5,1.864,2.982,2.982,0,0,1,7.648,4.08H5.632a1.457,1.457,0,0,0-.577-1.039,2.12,2.12,0,0,0-1.392-.433,1.984,1.984,0,0,0-1.28.4,1.4,1.4,0,0,0-.5,1.152A1.169,1.169,0,0,0,2.2,5a2.2,2.2,0,0,0,.792.521A12.55,12.55,0,0,0,4.3,5.937a13.591,13.591,0,0,1,1.8.608,2.986,2.986,0,0,1,1.183.936,2.69,2.69,0,0,1,.487,1.687,3.035,3.035,0,0,1-.455,1.6,3.3,3.3,0,0,1-1.328,1.208,4.388,4.388,0,0,1-2.056.455,4.987,4.987,0,0,1-2.016-.391M9.551,2a1.129,1.129,0,0,1-.336-.832A1.148,1.148,0,0,1,10.383,0,1.112,1.112,0,0,1,11.2.336a1.133,1.133,0,0,1,.336.832A1.129,1.129,0,0,1,11.2,2a1.108,1.108,0,0,1-.817.336A1.127,1.127,0,0,1,9.551,2M11.28,12.32H9.456V3.5H11.28ZM25.736,3.793a3.118,3.118,0,0,1,1.3,1.279A4.161,4.161,0,0,1,27.5,7.12v5.2H25.7V7.393A2.562,2.562,0,0,0,25.1,5.576a2.111,2.111,0,0,0-1.616-.632,2.134,2.134,0,0,0-1.624.632,2.541,2.541,0,0,0-.6,1.817V12.32H19.456V7.393a2.566,2.566,0,0,0-.592-1.817,2.11,2.11,0,0,0-1.617-.632,2.13,2.13,0,0,0-1.623.632,2.542,2.542,0,0,0-.6,1.817V12.32H13.2V3.5h1.823V4.512a3.047,3.047,0,0,1,1.137-.848,3.609,3.609,0,0,1,1.472-.3,3.916,3.916,0,0,1,1.888.449,3.053,3.053,0,0,1,1.279,1.3,2.958,2.958,0,0,1,1.249-1.273,3.7,3.7,0,0,1,1.824-.472,3.945,3.945,0,0,1,1.864.433M36.719,6.112a3,3,0,0,1-1.28,1.224,4.753,4.753,0,0,1-2.255.473H31.168V12.32H29.344V1.2h3.84a4.856,4.856,0,0,1,2.168.441A3.072,3.072,0,0,1,36.68,2.832a3.274,3.274,0,0,1,.44,1.68,3.352,3.352,0,0,1-.4,1.6m-1.985-.264a1.722,1.722,0,0,0,.513-1.336q0-1.823-2.063-1.823H31.168V6.32h2.016a2.215,2.215,0,0,0,1.55-.472m5.474,5h3.759V12.32H38.383V1.2h1.825Zm6.623-8.176V5.937h3.84V7.424h-3.84v3.408H51.15V12.32H45.007V1.184H51.15V2.672ZM68.3,1.2V12.32H66.479V4.7L63.087,12.32H61.823L58.415,4.7V12.32H56.59V1.2h1.969l3.9,8.72L66.351,1.2Zm3.488,10.7a4.076,4.076,0,0,1-1.584-1.6A4.832,4.832,0,0,1,69.631,7.9a4.726,4.726,0,0,1,.592-2.383,4.092,4.092,0,0,1,1.616-1.6,4.954,4.954,0,0,1,4.576,0,4.092,4.092,0,0,1,1.616,1.6A4.736,4.736,0,0,1,78.623,7.9a4.633,4.633,0,0,1-.608,2.384A4.206,4.206,0,0,1,76.359,11.9a4.781,4.781,0,0,1-2.312.568,4.522,4.522,0,0,1-2.256-.568m3.576-1.352a2.574,2.574,0,0,0,1-1.009A3.238,3.238,0,0,0,76.751,7.9a3.313,3.313,0,0,0-.368-1.624,2.5,2.5,0,0,0-.976-1A2.683,2.683,0,0,0,74.1,4.944a2.636,2.636,0,0,0-1.3.336,2.4,2.4,0,0,0-.952,1A3.429,3.429,0,0,0,71.487,7.9a3.093,3.093,0,0,0,.728,2.2,2.41,2.41,0,0,0,1.832.776,2.716,2.716,0,0,0,1.32-.336m4.528-5.024A4.018,4.018,0,0,1,83.519,3.36a4.145,4.145,0,0,1,1.7.376,3.493,3.493,0,0,1,1.336,1V.481H88.4V12.32H86.559V10.992a3.409,3.409,0,0,1-1.241,1.057,3.848,3.848,0,0,1-1.816.416,3.949,3.949,0,0,1-2.1-.584,4.129,4.129,0,0,1-1.5-1.633,5.005,5.005,0,0,1-.553-2.376,4.863,4.863,0,0,1,.553-2.351m6.288.8A2.637,2.637,0,0,0,85.2,5.3a2.585,2.585,0,0,0-1.312-.353A2.588,2.588,0,0,0,81.59,6.3a3.148,3.148,0,0,0-.376,1.575,3.294,3.294,0,0,0,.376,1.6,2.653,2.653,0,0,0,.993,1.048,2.578,2.578,0,0,0,2.616.007A2.629,2.629,0,0,0,86.183,9.5,3.244,3.244,0,0,0,86.559,7.9a3.2,3.2,0,0,0-.376-1.584M98.334,8.592H91.6a2.441,2.441,0,0,0,.784,1.7,2.472,2.472,0,0,0,1.728.64A2.132,2.132,0,0,0,96.19,9.7h1.969a3.977,3.977,0,0,1-1.449,1.993,4.248,4.248,0,0,1-2.6.776,4.507,4.507,0,0,1-2.264-.568,4.043,4.043,0,0,1-1.568-1.6A4.883,4.883,0,0,1,89.71,7.9a5,5,0,0,1,.553-2.392A3.888,3.888,0,0,1,91.814,3.92a4.627,4.627,0,0,1,2.3-.56,4.492,4.492,0,0,1,2.223.544,3.846,3.846,0,0,1,1.52,1.528A4.6,4.6,0,0,1,98.4,7.7a5.654,5.654,0,0,1-.064.9M96.5,7.12A2.08,2.08,0,0,0,95.774,5.5,2.578,2.578,0,0,0,94.031,4.9a2.341,2.341,0,0,0-1.616.6,2.51,2.51,0,0,0-.8,1.624Zm5.039,5.2H99.71V.48h1.824ZM114.318,1.2V2.689h-2.96V12.32h-1.824V2.689h-2.976V1.2Zm9.376,7.392h-6.736a2.441,2.441,0,0,0,.784,1.7,2.472,2.472,0,0,0,1.728.64A2.133,2.133,0,0,0,121.55,9.7h1.968a3.975,3.975,0,0,1-1.448,1.993,4.253,4.253,0,0,1-2.6.776,4.509,4.509,0,0,1-2.264-.568,4.05,4.05,0,0,1-1.568-1.6A4.883,4.883,0,0,1,115.07,7.9a5,5,0,0,1,.552-2.392,3.884,3.884,0,0,1,1.552-1.592,4.621,4.621,0,0,1,2.3-.56,4.5,4.5,0,0,1,2.224.544,3.852,3.852,0,0,1,1.52,1.528,4.613,4.613,0,0,1,.544,2.264,5.775,5.775,0,0,1-.064.9m-1.84-1.472a2.076,2.076,0,0,0-.72-1.616A2.578,2.578,0,0,0,119.39,4.9a2.342,2.342,0,0,0-1.616.6,2.51,2.51,0,0,0-.8,1.624Zm3.16-1.608a3.928,3.928,0,0,1,1.528-1.592,4.885,4.885,0,0,1,4.888.2,3.751,3.751,0,0,1,1.416,2.168h-1.97a2.088,2.088,0,0,0-.767-1.024,2.276,2.276,0,0,0-1.328-.367A2.2,2.2,0,0,0,127,5.689a3.347,3.347,0,0,0-.664,2.215A3.383,3.383,0,0,0,127,10.129a2.2,2.2,0,0,0,1.783.8,2.021,2.021,0,0,0,2.1-1.392h1.97a3.947,3.947,0,0,1-1.44,2.136,4.256,4.256,0,0,1-2.625.793,4.374,4.374,0,0,1-2.239-.568,3.987,3.987,0,0,1-1.528-1.6,5,5,0,0,1-.553-2.393,5,5,0,0,1,.553-2.392m15.535-1.719A3.077,3.077,0,0,1,141.8,5.072a4.273,4.273,0,0,1,.455,2.048v5.2h-1.808V7.393a2.57,2.57,0,0,0-.591-1.817,2.113,2.113,0,0,0-1.616-.632,2.137,2.137,0,0,0-1.625.632,2.546,2.546,0,0,0-.6,1.817V12.32h-1.825V.481h1.825V4.528a3.049,3.049,0,0,1,1.175-.864,3.942,3.942,0,0,1,1.56-.3,3.687,3.687,0,0,1,1.8.433m9.857,0a3.075,3.075,0,0,1,1.287,1.279,4.2,4.2,0,0,1,.465,2.048v5.2H150.35V7.393a2.562,2.562,0,0,0-.593-1.817,2.107,2.107,0,0,0-1.616-.632,2.13,2.13,0,0,0-1.623.632,2.537,2.537,0,0,0-.6,1.817V12.32h-1.824V3.5h1.824V4.512a3.032,3.032,0,0,1,1.144-.848,3.665,3.665,0,0,1,1.481-.3,3.951,3.951,0,0,1,1.864.433m5.158,8.1a4.1,4.1,0,0,1-1.584-1.6A4.832,4.832,0,0,1,153.4,7.9,4.726,4.726,0,0,1,154,5.521a4.085,4.085,0,0,1,1.616-1.6,4.952,4.952,0,0,1,4.575,0,4.094,4.094,0,0,1,1.617,1.6A4.735,4.735,0,0,1,162.4,7.9a4.632,4.632,0,0,1-.606,2.384,4.217,4.217,0,0,1-1.658,1.609,4.778,4.778,0,0,1-2.312.568,4.522,4.522,0,0,1-2.256-.568m3.577-1.352a2.58,2.58,0,0,0,1-1.009,3.249,3.249,0,0,0,.383-1.632,3.3,3.3,0,0,0-.368-1.624,2.488,2.488,0,0,0-.976-1,2.68,2.68,0,0,0-1.312-.336,2.636,2.636,0,0,0-1.3.336,2.408,2.408,0,0,0-.951,1A3.429,3.429,0,0,0,155.26,7.9a3.1,3.1,0,0,0,.728,2.2,2.414,2.414,0,0,0,1.832.776,2.72,2.72,0,0,0,1.321-.336m6.407,1.775h-1.823V.48h1.823Zm3.488-.423a4.1,4.1,0,0,1-1.584-1.6,4.832,4.832,0,0,1-.576-2.393,4.736,4.736,0,0,1,.592-2.383,4.088,4.088,0,0,1,1.617-1.6,4.952,4.952,0,0,1,4.575,0,4.085,4.085,0,0,1,1.616,1.6,4.726,4.726,0,0,1,.592,2.383,4.613,4.613,0,0,1-.608,2.384A4.206,4.206,0,0,1,173.6,11.9a4.778,4.778,0,0,1-2.312.568,4.522,4.522,0,0,1-2.256-.568m3.577-1.352a2.587,2.587,0,0,0,1-1.009A3.249,3.249,0,0,0,174,7.9a3.3,3.3,0,0,0-.368-1.624,2.5,2.5,0,0,0-.976-1,2.68,2.68,0,0,0-1.312-.336,2.636,2.636,0,0,0-1.3.336,2.39,2.39,0,0,0-.951,1,3.429,3.429,0,0,0-.353,1.624,3.1,3.1,0,0,0,.728,2.2,2.411,2.411,0,0,0,1.832.776,2.723,2.723,0,0,0,1.321-.336m9.95-6.776A3.487,3.487,0,0,1,183.8,4.784V3.5h1.841v8.961a4.512,4.512,0,0,1-.513,2.168,3.7,3.7,0,0,1-1.481,1.5,4.657,4.657,0,0,1-2.311.543,5.005,5.005,0,0,1-2.975-.84,3.092,3.092,0,0,1-1.345-2.279h1.808a1.958,1.958,0,0,0,.888,1.111,3,3,0,0,0,1.624.424,2.428,2.428,0,0,0,1.784-.672,2.625,2.625,0,0,0,.68-1.951V10.992a3.732,3.732,0,0,1-1.256,1.049,3.776,3.776,0,0,1-1.8.424,3.941,3.941,0,0,1-2.1-.584,4.11,4.11,0,0,1-1.5-1.633,4.994,4.994,0,0,1-.554-2.376,4.852,4.852,0,0,1,.554-2.351,4.02,4.02,0,0,1,3.607-2.161,3.892,3.892,0,0,1,1.815.409m.865,2.551a2.634,2.634,0,0,0-.983-1.023,2.588,2.588,0,0,0-1.313-.353,2.588,2.588,0,0,0-2.3,1.353,3.148,3.148,0,0,0-.375,1.575,3.293,3.293,0,0,0,.375,1.6,2.666,2.666,0,0,0,.993,1.048,2.58,2.58,0,0,0,2.617.007,2.626,2.626,0,0,0,.983-1.032A3.244,3.244,0,0,0,183.8,7.9a3.2,3.2,0,0,0-.376-1.584M195.5,3.5l-5.409,12.961H188.2L190,12.176,186.524,3.5h2.033l2.479,6.721L193.613,3.5Z" fill="url(#linear-gradient)"/>
  </g>
</svg>
