<svg xmlns="http://www.w3.org/2000/svg" xmlns:xlink="http://www.w3.org/1999/xlink" width="56" height="56" viewBox="0 0 56 56">
  <defs>
    <linearGradient id="linear-gradient" x2="1.067" y2="1" gradientUnits="objectBoundingBox">
      <stop offset="0" stop-color="#02c6ff"/>
      <stop offset="1" stop-color="#1c45f9"/>
    </linearGradient>
  </defs>
  <g id="p3_s1_icon3" transform="translate(5847 9542)">
    <g id="그룹_26791" data-name="그룹 26791" transform="translate(-6494.649 -10923.548)">
      <path id="패스_11160" data-name="패스 11160" d="M181.385,51.229a23.089,23.089,0,1,0,23.089,23.089,23.116,23.116,0,0,0-23.089-23.089m0,43.844a20.755,20.755,0,1,1,20.755-20.755,20.779,20.779,0,0,1-20.755,20.755" transform="translate(494.354 1335.319)" fill="url(#linear-gradient)"/>
      <path id="패스_11161" data-name="패스 11161" d="M191.513,73.073a4.984,4.984,0,0,0-7.04,0l-4.334,4.335a4.985,4.985,0,0,0,0,7.041l.167.166a4.978,4.978,0,0,0,7.039,0l4.335-4.333a4.986,4.986,0,0,0,0-7.039Zm-9.556,9.89h0l-.166-.166a2.647,2.647,0,0,1,0-3.739l1.342-1.342,3.905,3.906L185.7,82.963a2.705,2.705,0,0,1-3.738,0m8.072-4.333-1.342,1.341-3.905-3.906,1.341-1.342a2.647,2.647,0,0,1,3.738,0l.168.167a2.649,2.649,0,0,1,0,3.739" transform="translate(489.828 1330.794)" fill="url(#linear-gradient)"/>
      <path id="패스_11162" data-name="패스 11162" d="M200.589,74.454h-3.478a14.6,14.6,0,0,0-3.472-8.563l2.466-2.465a1.167,1.167,0,0,0-1.65-1.651l-2.466,2.466a14.606,14.606,0,0,0-8.348-3.462V57.3a1.167,1.167,0,1,0-2.334,0v3.483a14.615,14.615,0,0,0-8.349,3.461l-2.465-2.465a1.167,1.167,0,1,0-1.651,1.651l2.466,2.465a14.61,14.61,0,0,0-3.472,8.563h-3.467a1.167,1.167,0,1,0,0,2.334h3.49a14.611,14.611,0,0,0,3.45,8.133l-2.466,2.465a1.167,1.167,0,0,0,1.651,1.651l2.465-2.466a14.611,14.611,0,0,0,8.349,3.462v3.483a1.167,1.167,0,1,0,2.334,0V90.033a14.611,14.611,0,0,0,8.349-3.462l2.465,2.466a1.167,1.167,0,1,0,1.65-1.651l-2.465-2.465a14.617,14.617,0,0,0,3.45-8.133h3.5a1.167,1.167,0,1,0,0-2.334m-18.115,13.3a12.352,12.352,0,1,1,12.352-12.352,12.366,12.366,0,0,1-12.352,12.352" transform="translate(493.265 1334.232)" fill="url(#linear-gradient)"/>
    </g>
    <rect id="사각형_5871" data-name="사각형 5871" width="56" height="56" transform="translate(-5847 -9542)" fill="none"/>
  </g>
</svg>
