<svg xmlns="http://www.w3.org/2000/svg" xmlns:xlink="http://www.w3.org/1999/xlink" width="56" height="56" viewBox="0 0 56 56">
  <defs>
    <linearGradient id="linear-gradient" x2="1.067" y2="1" gradientUnits="objectBoundingBox">
      <stop offset="0" stop-color="#02c6ff"/>
      <stop offset="1" stop-color="#1c45f9"/>
    </linearGradient>
  </defs>
  <g id="p3_s1_icon2" transform="translate(6115 9542)">
    <g id="그룹_26790" data-name="그룹 26790" transform="translate(-6696.04 -10872.319)">
      <path id="패스_11158" data-name="패스 11158" d="M131.022,22.74c3.8-4.29,5.356-8.511,3.706-11.37-1.432-2.48-4.9-3.49-9.759-2.83-.632.086-1.284.2-1.945.342C121.211,3.45,118.333,0,115.035,0s-6.177,3.45-7.99,8.882c-.661-.138-1.313-.256-1.945-.342-4.859-.658-8.326.349-9.758,2.83-1.651,2.859-.1,7.081,3.705,11.37-3.8,4.289-5.356,8.511-3.705,11.37,1.146,1.986,3.594,3.025,7.019,3.025a20.449,20.449,0,0,0,2.738-.2c.632-.085,1.284-.2,1.945-.341,1.814,5.43,4.691,8.882,7.99,8.882s6.176-3.451,7.989-8.882c.661.138,1.313.256,1.945.341a20.449,20.449,0,0,0,2.739.2c3.424,0,5.874-1.04,7.02-3.025,1.65-2.859.1-7.081-3.706-11.37m-5.746-11.927a18.541,18.541,0,0,1,2.459-.177c2.521,0,4.3.651,5.006,1.88,1.028,1.78-.185,5.006-3.3,8.56a42.539,42.539,0,0,0-4.687-3.947,42.535,42.535,0,0,0-1.078-6.046q.818-.165,1.6-.271m-6.382,18.611c-1.282.74-2.574,1.41-3.859,2.013-1.286-.6-2.577-1.273-3.86-2.013-1.308-.756-2.534-1.538-3.676-2.334-.119-1.386-.183-2.84-.183-4.351s.064-2.963.183-4.35c1.142-.8,2.368-1.579,3.676-2.334,1.282-.741,2.574-1.411,3.86-2.014,1.285.6,2.576,1.273,3.859,2.014,1.308.755,2.534,1.537,3.676,2.333.119,1.386.183,2.839.183,4.351s-.064,2.964-.184,4.351c-1.141.8-2.367,1.578-3.675,2.334m3.32.661a38.386,38.386,0,0,1-.766,3.762c-1.184-.33-2.4-.741-3.638-1.224.746-.385,1.49-.785,2.231-1.213s1.47-.874,2.173-1.325m-9.954,2.538c-1.237.483-2.454.894-3.638,1.224a38.386,38.386,0,0,1-.766-3.762q1.054.677,2.173,1.325c.741.427,1.486.828,2.231,1.213m-7.177-7.354c-1.051-.843-2.006-1.69-2.862-2.53q1.284-1.261,2.862-2.53-.059,1.245-.06,2.53t.06,2.53m2.773-9.876a38.226,38.226,0,0,1,.766-3.763c1.184.332,2.4.742,3.638,1.225-.746.385-1.49.785-2.231,1.214s-1.47.874-2.173,1.325m9.954-2.538c1.237-.483,2.454-.894,3.638-1.225a38.226,38.226,0,0,1,.766,3.763c-.7-.45-1.426-.894-2.173-1.325s-1.486-.828-2.231-1.214m7.177,7.354c1.051.843,2.006,1.689,2.862,2.53-.856.84-1.812,1.686-2.862,2.53q.058-1.245.06-2.53t-.06-2.53M115.035,2.294c2.055,0,4.243,2.662,5.762,7.139a43.211,43.211,0,0,0-5.763,2.1,43.2,43.2,0,0,0-5.762-2.1c1.52-4.477,3.707-7.139,5.763-7.139M97.327,12.517c.71-1.23,2.485-1.88,5.007-1.88a18.529,18.529,0,0,1,2.459.177q.785.106,1.6.271a42.539,42.539,0,0,0-1.078,6.046,42.615,42.615,0,0,0-4.687,3.948c-3.119-3.555-4.331-6.782-3.3-8.561m7.465,22.15c-3.821.515-6.543-.106-7.465-1.7-1.028-1.78.185-5.007,3.3-8.561a42.544,42.544,0,0,0,4.687,3.948A42.539,42.539,0,0,0,106.4,34.4q-.818.165-1.6.271m10.242,8.519c-2.056,0-4.243-2.662-5.763-7.139a43.2,43.2,0,0,0,5.762-2.1,43.25,43.25,0,0,0,5.763,2.1c-1.52,4.477-3.707,7.139-5.762,7.139m17.706-10.223c-.922,1.6-3.643,2.217-7.465,1.7q-.785-.107-1.6-.271a42.535,42.535,0,0,0,1.078-6.046,42.543,42.543,0,0,0,4.687-3.948c3.119,3.555,4.331,6.781,3.3,8.561" transform="translate(494.354 1335.319)" fill="url(#linear-gradient)"/>
      <path id="패스_11159" data-name="패스 11159" d="M120.6,26.787a2.255,2.255,0,1,0,2.255,2.255,2.255,2.255,0,0,0-2.255-2.255" transform="translate(488.787 1329.017)" fill="url(#linear-gradient)"/>
    </g>
    <rect id="사각형_5870" data-name="사각형 5870" width="56" height="56" transform="translate(-6115 -9542)" fill="none"/>
  </g>
</svg>
