<svg xmlns="http://www.w3.org/2000/svg" xmlns:xlink="http://www.w3.org/1999/xlink" width="56" height="56" viewBox="0 0 56 56">
  <defs>
    <linearGradient id="linear-gradient" x2="1.067" y2="1" gradientUnits="objectBoundingBox">
      <stop offset="0" stop-color="#02c6ff"/>
      <stop offset="1" stop-color="#1c45f9"/>
    </linearGradient>
  </defs>
  <g id="p3_s1_icon4" transform="translate(5525 9542)">
    <g id="그룹_26792" data-name="그룹 26792" transform="translate(-6059.223 -10938.658)">
      <path id="패스_11163" data-name="패스 11163" d="M84.722,108.372H50.777a5.914,5.914,0,0,1-5.908-5.907V76.246a5.914,5.914,0,0,1,5.908-5.908H84.722a5.914,5.914,0,0,1,5.908,5.908v26.219a5.914,5.914,0,0,1-5.908,5.907M50.777,72.619a3.631,3.631,0,0,0-3.627,3.627v26.219a3.63,3.63,0,0,0,3.627,3.626H84.722a3.63,3.63,0,0,0,3.627-3.626V76.246a3.631,3.631,0,0,0-3.627-3.627Z" transform="translate(494.354 1335.319)" fill="url(#linear-gradient)"/>
      <path id="패스_11164" data-name="패스 11164" d="M83.516,105.671H54.806a4.05,4.05,0,0,1-4.046-4.046V79.57a4.05,4.05,0,0,1,4.046-4.046H83.516a4.05,4.05,0,0,1,4.046,4.046v22.055a4.05,4.05,0,0,1-4.046,4.046M54.806,77.8a1.767,1.767,0,0,0-1.765,1.765v22.055a1.767,1.767,0,0,0,1.765,1.765H83.516a1.767,1.767,0,0,0,1.765-1.765V79.57A1.767,1.767,0,0,0,83.516,77.8Z" transform="translate(492.942 1334.076)" fill="url(#linear-gradient)"/>
      <path id="패스_11165" data-name="패스 11165" d="M80.562,101.6a1.077,1.077,0,0,1-.177-.014,1.14,1.14,0,0,1-.953-.968L78.86,96.54l-1.3-1.305-2.632,2.393a1.14,1.14,0,0,1-1.857-.507l-2.2-7.111-5.412,9.376a1.14,1.14,0,0,1-1.877.143L59.385,94.3l-2.546,3.125a1.141,1.141,0,0,1-1.769-1.441l3.437-4.218a1.142,1.142,0,0,1,.884-.42h0a1.141,1.141,0,0,1,.886.427L64.315,96.8,70.2,86.6a1.141,1.141,0,0,1,2.077.234l2.439,7.894,2.109-1.918a1.141,1.141,0,0,1,1.574.037L80.743,95.2a1.134,1.134,0,0,1,.323.649l.1.741,2.115-4.361a1.14,1.14,0,1,1,2.052.995l-3.75,7.733a1.141,1.141,0,0,1-1.026.643" transform="translate(491.97 1331.557)" fill="url(#linear-gradient)"/>
    </g>
    <rect id="사각형_5872" data-name="사각형 5872" width="56" height="56" transform="translate(-5525 -9542)" fill="none"/>
  </g>
</svg>
