<svg id="p3_s1_icon" xmlns="http://www.w3.org/2000/svg" width="20" height="16" viewBox="0 0 20 16">
  <path id="Path" d="M0,10.7a6.513,6.513,0,0,0,4.441,1.5,7.933,7.933,0,0,0,7.834-7h1.178a1,1,0,0,0,.821-1.555l-2.1-3.2a.98.98,0,0,0-1.642,0l-2.1,3.2A1,1,0,0,0,9.245,5.2H10.28a5.946,5.946,0,0,1-5.839,5,5.834,5.834,0,0,1-2.962-.8Z" transform="translate(5.559 3.803)" fill="#c3d8ff"/>
  <path id="Path-2" data-name="Path" d="M12.961,2.8A5.834,5.834,0,0,0,10,2,5.946,5.946,0,0,0,4.161,7H5.2a1,1,0,0,1,.821,1.555l-2.1,3.2a.98.98,0,0,1-1.642,0l-2.1-3.2A1,1,0,0,1,.989,7H2.166A7.933,7.933,0,0,1,10,0a6.513,6.513,0,0,1,4.441,1.5Z" transform="translate(0)" fill="#377dff"/>
</svg>
