<svg id="p4_s1_user_icon" data-name="p4_s1_user icon" xmlns="http://www.w3.org/2000/svg" width="16.324" height="18.139" viewBox="0 0 16.324 18.139">
  <path id="Shape" d="M3.627,7.255A3.628,3.628,0,1,1,7.255,3.627,3.632,3.632,0,0,1,3.627,7.255Zm0-5.442A1.814,1.814,0,1,0,5.442,3.627,1.816,1.816,0,0,0,3.627,1.814Z" transform="translate(4.534 0)" fill="#1c45f9"/>
  <path id="Shape-2" data-name="Shape" d="M8.162,9.069a12.579,12.579,0,0,1-4.657-.864A5.827,5.827,0,0,1,.046,4.821a.913.913,0,0,1,0-.574C.654,2.424,2.46,1.4,3.869.854A13.03,13.03,0,0,1,8.162,0a13.03,13.03,0,0,1,4.293.854c1.408.542,3.214,1.571,3.822,3.394a.913.913,0,0,1,0,.574,5.827,5.827,0,0,1-3.459,3.384A12.579,12.579,0,0,1,8.162,9.069Zm0-7.255a11.245,11.245,0,0,0-3.642.733A4.686,4.686,0,0,0,1.883,4.541,4.145,4.145,0,0,0,4.2,6.531a10.551,10.551,0,0,0,3.959.724,10.551,10.551,0,0,0,3.959-.724,4.145,4.145,0,0,0,2.321-1.99A4.686,4.686,0,0,0,11.8,2.547,11.245,11.245,0,0,0,8.162,1.814Z" transform="translate(0 9.069)" fill="#1c45f9"/>
</svg>
