<svg xmlns="http://www.w3.org/2000/svg" xmlns:xlink="http://www.w3.org/1999/xlink" width="83.619" height="52.098" viewBox="0 0 83.619 52.098">
  <defs>
    <linearGradient id="linear-gradient" x1="0.517" y1="0.086" x2="0.482" y2="0.983" gradientUnits="objectBoundingBox">
      <stop offset="0" stop-color="#fff"/>
      <stop offset="1" stop-color="#fff" stop-opacity="0.502"/>
    </linearGradient>
    <linearGradient id="linear-gradient-2" x1="0.908" y1="0.564" x2="-0.06" y2="0.594" xlink:href="#linear-gradient"/>
    <clipPath id="clip-path">
      <path id="패스_16" data-name="패스 16" d="M64.65.473a4.764,4.764,0,0,0-2.29,6.337l9.445,20.128a4.764,4.764,0,0,0,4.3,2.742h.02a4.767,4.767,0,0,0,4.3-6.789L70.987,2.763A4.76,4.76,0,0,0,64.65.473" transform="translate(-61.908 -0.021)" fill="url(#linear-gradient)"/>
    </clipPath>
    <clipPath id="clip-path-2">
      <path id="패스_15" data-name="패스 15" d="M14.313,0A4.749,4.749,0,0,0,12.3.452c-.069.032-.137.067-.2.1a4.718,4.718,0,0,0-2.026,2.163L4.449,14.523l-4,8.349a4.764,4.764,0,1,0,8.627,4.048l1.546-3.3a7.154,7.154,0,0,0-.008-6.126L9.5,15.138,8.849,13.68a1.973,1.973,0,0,1,.16-2.071,2.029,2.029,0,0,1,3.288.057l7.157,15.253a4.765,4.765,0,1,0,8.627-4.048L18.635,2.742A4.765,4.765,0,0,0,14.327,0Z" transform="translate(0)" fill="url(#linear-gradient-2)"/>
    </clipPath>
  </defs>
  <g id="그룹_26105" data-name="그룹 26105" transform="translate(-390.483 -1549.217)">
    <g id="그룹_24376" data-name="그룹 24376" transform="translate(390.483 1589.695)">
      <path id="패스_10713" data-name="패스 10713" d="M13.153,131.482H11.088v-6.73l-3.633,6.391a.89.89,0,0,1-.374.37,1.091,1.091,0,0,1-.516.126,1.029,1.029,0,0,1-.5-.126.9.9,0,0,1-.367-.37l-3.649-6.391v6.73H0V121.056a1.029,1.029,0,0,1,.756-1,1.1,1.1,0,0,1,.65.044.964.964,0,0,1,.493.422l4.665,8.109,4.665-8.109a1,1,0,0,1,.5-.426,1.068,1.068,0,0,1,.666-.039,1.026,1.026,0,0,1,.544.371,1,1,0,0,1,.213.63Z" transform="translate(0 -120.02)" fill="#fff"/>
      <path id="패스_10714" data-name="패스 10714" d="M54.979,131.8H47.587a3.287,3.287,0,0,1-.93-.15,2.718,2.718,0,0,1-1.651-1.383,2.865,2.865,0,0,1-.288-1.344V121.53a1.049,1.049,0,0,1,.3-.733.977.977,0,0,1,.327-.221,1.06,1.06,0,0,1,.41-.079h9.228v2.049H46.767v6.375a.83.83,0,0,0,.212.614.843.843,0,0,0,.623.213h7.376Zm-.922-4.618H46.451v-2.065h7.606Z" transform="translate(-29.636 -120.337)" fill="#fff"/>
      <path id="패스_10715" data-name="패스 10715" d="M91.055,127.07a4.922,4.922,0,0,1-.358,1.9,4.442,4.442,0,0,1-2.486,2.475,4.926,4.926,0,0,1-1.883.354H80.794a1.053,1.053,0,0,1-.41-.079.986.986,0,0,1-.544-.544,1.058,1.058,0,0,1-.079-.41V121.53a1.039,1.039,0,0,1,.079-.4,1.054,1.054,0,0,1,.217-.331.972.972,0,0,1,.327-.221,1.054,1.054,0,0,1,.41-.079h5.532a4.932,4.932,0,0,1,1.883.354,4.436,4.436,0,0,1,2.486,2.479,4.93,4.93,0,0,1,.358,1.9Zm-2.049-1.844a3,3,0,0,0-.193-1.1,2.393,2.393,0,0,0-.548-.847,2.466,2.466,0,0,0-.847-.544,2.966,2.966,0,0,0-1.091-.193H81.811v7.2h4.516a2.973,2.973,0,0,0,1.091-.193,2.472,2.472,0,0,0,.847-.544,2.4,2.4,0,0,0,.548-.843,2.993,2.993,0,0,0,.193-1.1Z" transform="translate(-52.861 -120.337)" fill="#fff"/>
      <rect id="사각형_28" data-name="사각형 28" width="2.049" height="11.301" transform="translate(39.815 0.161)" fill="#fff"/>
      <path id="패스_10716" data-name="패스 10716" d="M140.415,131.8h-9.347a1.055,1.055,0,0,1-.41-.079.984.984,0,0,1-.544-.544,1.052,1.052,0,0,1-.079-.41V120.5h2.049v9.252h8.33Z" transform="translate(-86.179 -120.337)" fill="#fff"/>
      <path id="패스_10717" data-name="패스 10717" d="M177.229,131.482h-2.065v-6.73l-3.633,6.391a.89.89,0,0,1-.374.37,1.092,1.092,0,0,1-.516.126,1.03,1.03,0,0,1-.5-.126.9.9,0,0,1-.367-.37l-3.649-6.391v6.73h-2.049V121.056a1.029,1.029,0,0,1,.756-1,1.1,1.1,0,0,1,.65.044.964.964,0,0,1,.493.422l4.665,8.109,4.665-8.109a1,1,0,0,1,.5-.426,1.068,1.068,0,0,1,.666-.039,1.026,1.026,0,0,1,.544.371,1,1,0,0,1,.213.63Z" transform="translate(-108.739 -120.02)" fill="#fff"/>
      <path id="패스_10718" data-name="패스 10718" d="M222.087,131.482h-2.065v-6.73l-3.633,6.391a.89.89,0,0,1-.374.37,1.091,1.091,0,0,1-.516.126,1.029,1.029,0,0,1-.5-.126.9.9,0,0,1-.367-.37l-3.649-6.391v6.73h-2.049V121.056a1.029,1.029,0,0,1,.756-1,1.1,1.1,0,0,1,.65.044.964.964,0,0,1,.493.422l4.665,8.109,4.665-8.109a1,1,0,0,1,.5-.426,1.068,1.068,0,0,1,.666-.039,1.026,1.026,0,0,1,.544.371,1,1,0,0,1,.213.63Z" transform="translate(-138.468 -120.02)" fill="#fff"/>
    </g>
    <g id="그룹_10" data-name="그룹 10" transform="translate(410.671 1549.217)">
      <g id="그룹_8" data-name="그룹 8" transform="translate(24.506 0.008)" clip-path="url(#clip-path)">
        <rect id="사각형_8" data-name="사각형 8" width="31.94" height="35.741" transform="translate(-13.046 6.666) rotate(-28.301)" fill="url(#linear-gradient)"/>
      </g>
      <g id="그룹_7" data-name="그룹 7" transform="translate(0 0)" clip-path="url(#clip-path-2)">
        <rect id="사각형_7" data-name="사각형 7" width="41.447" height="41.591" transform="matrix(0.845, -0.534, 0.534, 0.845, -14.361, 8.656)" fill="url(#linear-gradient-2)"/>
      </g>
    </g>
  </g>
</svg>
